Belleza-Regular.otf.ufo
<glyph name="exclam" format="1">
  <advance width="333"/>
  <unicode hex="0021"/>
  <outline>
    <contour>
      <point x="135" y="653" type="line" name="hr00"/>
      <point x="165" y="158" type="line"/>
      <point x="200" y="158" type="line"/>
      <point x="230" y="653" type="line"/>
    </contour>
    <contour>
      <point x="237" y="42" type="curve"/>
      <point x="237" y="6" smooth="yes"/>
      <point x="206" y="-9" smooth="yes"/>
      <point x="182" y="-9" type="curve" smooth="yes"/>
      <point x="161" y="-9" smooth="yes"/>
      <point x="128" y="4" smooth="yes"/>
      <point x="128" y="42" type="curve" smooth="yes"/>
      <point x="128" y="73" smooth="yes"/>
      <point x="153" y="96" smooth="yes"/>
      <point x="182" y="96" type="curve" smooth="yes"/>
      <point x="213" y="96" smooth="yes"/>
      <point x="237" y="71" smooth="yes"/>
    </contour>
  </outline>
</glyph>
<glyph name="quotedbl" format="1">
  <advance width="350"/>
  <unicode hex="0022"/>
  <outline>
    <contour>
      <point x="50" y="607" type="line" name="hr00"/>
      <point x="78" y="431" type="line"/>
      <point x="102" y="431" type="line"/>
      <point x="131" y="607" type="line"/>
      <point x="131" y="677" type="line"/>
      <point x="50" y="677" type="line"/>
    </contour>
    <contour>
      <point x="219" y="607" type="line"/>
      <point x="247" y="431" type="line"/>
      <point x="271" y="431" type="line"/>
      <point x="300" y="607" type="line"/>
      <point x="300" y="677" type="line"/>
      <point x="219" y="677" type="line"/>
    </contour>
  </outline>
</glyph>
<glyph name="parenleft" format="1">
  <advance width="333"/>
  <unicode hex="0028"/>
  <outline>
    <contour>
      <point x="126" y="251" type="curve" name="hr00"/>
      <point x="126" y="498"/>
      <point x="190" y="581"/>
      <point x="284" y="661" type="curve"/>
      <point x="282" y="677" type="line"/>
      <point x="126" y="590" smooth="yes"/>
      <point x="48" y="445" smooth="yes"/>
      <point x="48" y="251" type="curve" smooth="yes"/>
      <point x="48" y="57"/>
      <point x="126" y="-88"/>
      <point x="282" y="-176" type="curve"/>
      <point x="284" y="-159" type="line"/>
      <point x="190" y="-80" smooth="yes"/>
      <point x="126" y="4" smooth="yes"/>
    </contour>
  </outline>
</glyph>
<glyph name="parenright" format="1">
  <advance width="333"/>
  <unicode hex="0029"/>
  <outline>
    <contour>
      <point x="207" y="249" type="curve" name="hr00"/>
      <point x="207" y="2"/>
      <point x="143" y="-81"/>
      <point x="49" y="-161" type="curve"/>
      <point x="51" y="-177" type="line"/>
      <point x="207" y="-90" smooth="yes"/>
      <point x="285" y="55" smooth="yes"/>
      <point x="285" y="249" type="curve" smooth="yes"/>
      <point x="285" y="443"/>
      <point x="207" y="588"/>
      <point x="51" y="676" type="curve"/>
      <point x="49" y="659" type="line"/>
      <point x="143" y="580" smooth="yes"/>
      <point x="207" y="496" smooth="yes"/>
    </contour>
  </outline>
</glyph>
<glyph name="asterisk" format="1">
  <advance width="507"/>
  <unicode hex="002A"/>
  <outline>
    <contour>
      <point x="278" y="509" type="line" name="hr00"/>
      <point x="300" y="602" type="line"/>
      <point x="300" y="662" type="line"/>
      <point x="220" y="662" type="line"/>
      <point x="220" y="602" type="line"/>
      <point x="241" y="509" type="line"/>
      <point x="172" y="574" type="line"/>
      <point x="120" y="604" type="line"/>
      <point x="80" y="535" type="line"/>
      <point x="132" y="505" type="line"/>
      <point x="223" y="477" type="line"/>
      <point x="132" y="449" type="line"/>
      <point x="80" y="419" type="line"/>
      <point x="120" y="350" type="line"/>
      <point x="172" y="380" type="line"/>
      <point x="242" y="445" type="line"/>
      <point x="220" y="352" type="line"/>
      <point x="220" y="292" type="line"/>
      <point x="300" y="292" type="line"/>
      <point x="300" y="352" type="line"/>
      <point x="278" y="445" type="line"/>
      <point x="348" y="380" type="line"/>
      <point x="400" y="350" type="line"/>
      <point x="440" y="419" type="line"/>
      <point x="388" y="449" type="line"/>
      <point x="297" y="477" type="line"/>
      <point x="388" y="505" type="line"/>
      <point x="440" y="535" type="line"/>
      <point x="400" y="604" type="line"/>
      <point x="348" y="574" type="line"/>
    </contour>
  </outline>
</glyph>
<glyph name="hyphen" format="1">
  <advance width="333"/>
  <unicode hex="002D"/>
  <outline>
    <contour>
      <point x="285" y="257" type="line" name="hr00"/>
      <point x="39" y="257" type="line"/>
      <point x="39" y="194" type="line"/>
      <point x="285" y="194" type="line"/>
    </contour>
  </outline>
</glyph>
<glyph name="zero" format="1">
  <advance width="500"/>
  <unicode hex="0030"/>
  <outline>
    <contour>
      <point x="268" y="577" type="curve" name="hr00"/>
      <point x="165" y="577" smooth="yes"/>
      <point x="26" y="504" smooth="yes"/>
      <point x="26" y="269" type="curve" smooth="yes"/>
      <point x="26" y="88" smooth="yes"/>
      <point x="116" y="-12" smooth="yes"/>
      <point x="229" y="-12" type="curve" smooth="yes"/>
      <point x="333" y="-12" smooth="yes"/>
      <point x="472" y="66" smooth="yes"/>
      <point x="472" y="301" type="curve" smooth="yes"/>
      <point x="472" y="483" smooth="yes"/>
      <point x="381" y="577" smooth="yes"/>
    </contour>
    <contour>
      <point x="246" y="526" type="curve"/>
      <point x="319" y="526" smooth="yes"/>
      <point x="379" y="420" smooth="yes"/>
      <point x="379" y="283" type="curve" smooth="yes"/>
      <point x="379" y="120" smooth="yes"/>
      <point x="334" y="35" smooth="yes"/>
      <point x="246" y="35" type="curve" smooth="yes"/>
      <point x="173" y="35" smooth="yes"/>
      <point x="114" y="146" smooth="yes"/>
      <point x="114" y="283" type="curve" smooth="yes"/>
      <point x="114" y="435" smooth="yes"/>
      <point x="160" y="526" smooth="yes"/>
    </contour>
  </outline>
</glyph>
<glyph name="one" format="1">
  <advance width="500"/>
  <unicode hex="0031"/>
  <outline>
    <contour>
      <point x="79" y="421" type="line" name="hr00"/>
      <point x="213" y="490" type="line"/>
      <point x="213" y="53" type="line"/>
      <point x="71" y="63" type="line"/>
      <point x="71" y="0" type="line"/>
      <point x="440" y="0" type="line"/>
      <point x="440" y="63" type="line"/>
      <point x="298" y="53" type="line"/>
      <point x="298" y="580" type="line"/>
      <point x="294" y="580" type="line"/>
      <point x="45" y="479" type="line"/>
    </contour>
  </outline>
</glyph>
<glyph name="three" format="1">
  <advance width="500"/>
  <unicode hex="0033"/>
  <outline>
    <contour>
      <point x="194" y="-108" type="curve"/>
      <point x="300" y="-108" smooth="yes"/>
      <point x="430" y="-45" smooth="yes"/>
      <point x="430" y="92" type="curve" smooth="yes"/>
      <point x="430" y="164"/>
      <point x="373" y="231"/>
      <point x="257" y="255" type="curve"/>
      <point x="341" y="284" smooth="yes"/>
      <point x="396" y="342" smooth="yes"/>
      <point x="396" y="411" type="curve" smooth="yes" name="hr01"/>
      <point x="396" y="520" smooth="yes"/>
      <point x="301" y="580" smooth="yes"/>
      <point x="176" y="580" type="curve" smooth="yes"/>
      <point x="134" y="580"/>
      <point x="72" y="568"/>
      <point x="42" y="559" type="curve"/>
      <point x="62" y="496" type="line"/>
      <point x="118" y="513"/>
      <point x="173" y="524"/>
      <point x="216" y="524" type="curve"/>
      <point x="299" y="493" smooth="yes"/>
      <point x="305" y="428" smooth="yes"/>
      <point x="305" y="406" type="curve" smooth="yes"/>
      <point x="305" y="335"/>
      <point x="263" y="271"/>
      <point x="118" y="262" type="curve"/>
      <point x="119" y="235" type="line"/>
      <point x="278" y="235" smooth="yes"/>
      <point x="333" y="159" smooth="yes"/>
      <point x="333" y="84" type="curve" smooth="yes" name="hr02"/>
      <point x="333" y="-14" smooth="yes"/>
      <point x="260" y="-66" smooth="yes"/>
      <point x="180" y="-66" type="curve" smooth="yes"/>
      <point x="124" y="-55"/>
      <point x="88" y="-38"/>
      <point x="40" y="-15" type="curve"/>
      <point x="20" y="-79" type="line"/>
      <point x="48" y="-88" smooth="yes"/>
      <point x="116" y="-108" smooth="yes"/>
    </contour>
  </outline>
</glyph>
<glyph name="four" format="1">
  <advance width="500"/>
  <unicode hex="0034"/>
  <outline>
    <contour>
      <point x="484" y="69" type="line" name="hr00"/>
      <point x="484" y="132" type="line"/>
      <point x="370" y="132" type="line"/>
      <point x="370" y="562" type="line"/>
      <point x="286" y="562" type="line"/>
      <point x="-1" y="112" type="line"/>
      <point x="-1" y="69" type="line"/>
      <point x="286" y="69" type="line"/>
      <point x="286" y="-100" type="line"/>
      <point x="370" y="-100" type="line"/>
      <point x="370" y="69" type="line"/>
    </contour>
    <contour>
      <point x="286" y="132" type="line"/>
      <point x="57" y="132" type="line"/>
      <point x="286" y="499" type="line"/>
    </contour>
  </outline>
</glyph>
<glyph name="five" format="1">
  <advance width="500"/>
  <unicode hex="0035"/>
  <outline>
    <contour>
      <point x="194" y="-108" type="curve" name="hr00"/>
      <point x="281" y="-108" smooth="yes"/>
      <point x="426" y="-64" smooth="yes"/>
      <point x="426" y="73" type="curve" smooth="yes"/>
      <point x="426" y="167"/>
      <point x="341" y="252"/>
      <point x="147" y="261" type="curve"/>
      <point x="159" y="510" type="line"/>
      <point x="402" y="495" type="line"/>
      <point x="412" y="562" type="line"/>
      <point x="81" y="562" type="line"/>
      <point x="65" y="236" type="line"/>
      <point x="95" y="236" type="line" smooth="yes"/>
      <point x="274" y="236" smooth="yes"/>
      <point x="330" y="146" smooth="yes"/>
      <point x="330" y="73" type="curve" smooth="yes"/>
      <point x="330" y="-25"/>
      <point x="259" y="-66"/>
      <point x="180" y="-66" type="curve"/>
      <point x="124" y="-55"/>
      <point x="88" y="-43"/>
      <point x="40" y="-20" type="curve"/>
      <point x="20" y="-84" type="line"/>
      <point x="48" y="-93" smooth="yes"/>
      <point x="96" y="-108" smooth="yes"/>
    </contour>
  </outline>
</glyph>
<glyph name="six" format="1">
  <advance width="500"/>
  <unicode hex="0036"/>
  <outline>
    <contour>
      <point x="279" y="382" type="curve" name="hr00"/>
      <point x="222" y="382"/>
      <point x="172" y="362"/>
      <point x="135" y="314" type="curve"/>
      <point x="129" y="314" type="line"/>
      <point x="134" y="460"/>
      <point x="191" y="588"/>
      <point x="275" y="620" type="curve"/>
      <point x="328" y="620"/>
      <point x="362" y="609"/>
      <point x="419" y="591" type="curve"/>
      <point x="439" y="655" type="line"/>
      <point x="411" y="663" smooth="yes"/>
      <point x="359" y="675" smooth="yes"/>
      <point x="317" y="675" type="curve" smooth="yes"/>
      <point x="191" y="675" smooth="yes"/>
      <point x="40" y="541" smooth="yes"/>
      <point x="40" y="294" type="curve" smooth="yes"/>
      <point x="40" y="127" smooth="yes"/>
      <point x="108" y="-12" smooth="yes"/>
      <point x="248" y="-12" type="curve" smooth="yes"/>
      <point x="343" y="-12" smooth="yes"/>
      <point x="459" y="38" smooth="yes"/>
      <point x="459" y="191" type="curve" smooth="yes"/>
      <point x="459" y="308" smooth="yes"/>
      <point x="382" y="382" smooth="yes"/>
    </contour>
    <contour>
      <point x="247" y="32" type="curve"/>
      <point x="172" y="32" smooth="yes"/>
      <point x="129" y="154" smooth="yes"/>
      <point x="129" y="271" type="curve" smooth="yes"/>
      <point x="129" y="279"/>
      <point x="180" y="328"/>
      <point x="257" y="336" type="curve"/>
      <point x="339" y="320" smooth="yes"/>
      <point x="364" y="255" smooth="yes"/>
      <point x="364" y="187" type="curve" smooth="yes"/>
      <point x="364" y="101" smooth="yes"/>
      <point x="312" y="32" smooth="yes"/>
    </contour>
  </outline>
</glyph>
<glyph name="eight" format="1">
  <advance width="500"/>
  <unicode hex="0038"/>
  <outline>
    <contour>
      <point x="215" y="314" type="curve"/>
      <point x="321" y="232" smooth="yes"/>
      <point x="359" y="202" smooth="yes"/>
      <point x="359" y="128" type="curve" smooth="yes"/>
      <point x="359" y="75" smooth="yes"/>
      <point x="314" y="32" smooth="yes"/>
      <point x="258" y="32" type="curve" smooth="yes"/>
      <point x="194" y="32" smooth="yes"/>
      <point x="142" y="88" smooth="yes"/>
      <point x="142" y="158" type="curve" smooth="yes"/>
      <point x="142" y="229"/>
      <point x="186" y="288"/>
    </contour>
    <contour>
      <point x="56" y="148" type="curve"/>
      <point x="56" y="70" smooth="yes"/>
      <point x="122" y="-12" smooth="yes"/>
      <point x="246" y="-12" type="curve" smooth="yes"/>
      <point x="412" y="-12" smooth="yes"/>
      <point x="445" y="100" smooth="yes"/>
      <point x="445" y="152" type="curve" smooth="yes"/>
      <point x="445" y="219"/>
      <point x="424" y="277"/>
      <point x="290" y="373" type="curve"/>
      <point x="344" y="402" smooth="yes"/>
      <point x="424" y="444" smooth="yes"/>
      <point x="424" y="536" type="curve" smooth="yes" name="hr01"/>
      <point x="424" y="612" smooth="yes"/>
      <point x="362" y="675" smooth="yes"/>
      <point x="249" y="675" type="curve" smooth="yes"/>
      <point x="163" y="675" smooth="yes"/>
      <point x="62" y="624" smooth="yes"/>
      <point x="62" y="523" type="curve" smooth="yes"/>
      <point x="62" y="442"/>
      <point x="102" y="408"/>
      <point x="186" y="334" type="curve"/>
      <point x="97" y="266" smooth="yes"/>
      <point x="56" y="235" smooth="yes"/>
    </contour>
    <contour>
      <point x="145" y="548" type="curve"/>
      <point x="145" y="594" smooth="yes"/>
      <point x="188" y="632" smooth="yes"/>
      <point x="241" y="632" type="curve" smooth="yes"/>
      <point x="298" y="632" smooth="yes"/>
      <point x="344" y="591" smooth="yes"/>
      <point x="344" y="540" type="curve" smooth="yes"/>
      <point x="344" y="468"/>
      <point x="292" y="413"/>
      <point x="258" y="388" type="curve"/>
      <point x="225" y="411" smooth="yes"/>
      <point x="145" y="469" smooth="yes"/>
    </contour>
  </outline>
</glyph>
<glyph name="colon" format="1">
  <advance width="211"/>
  <unicode hex="003A"/>
  <outline>
    <contour>
      <point x="50" y="44" type="curve" name="hr00"/>
      <point x="50" y="13" smooth="yes"/>
      <point x="74" y="-11" smooth="yes"/>
      <point x="105" y="-11" type="curve" smooth="yes"/>
      <point x="136" y="-11" smooth="yes"/>
      <point x="161" y="13" smooth="yes"/>
      <point x="161" y="44" type="curve" smooth="yes"/>
      <point x="161" y="75" smooth="yes"/>
      <point x="136" y="100" smooth="yes"/>
      <point x="105" y="100" type="curve" smooth="yes"/>
      <point x="74" y="100" smooth="yes"/>
      <point x="50" y="75" smooth="yes"/>
    </contour>
    <contour>
      <point x="50" y="403" type="curve"/>
      <point x="50" y="372" smooth="yes"/>
      <point x="74" y="348" smooth="yes"/>
      <point x="105" y="348" type="curve" smooth="yes"/>
      <point x="136" y="348" smooth="yes"/>
      <point x="161" y="372" smooth="yes"/>
      <point x="161" y="403" type="curve" smooth="yes"/>
      <point x="161" y="434" smooth="yes"/>
      <point x="136" y="459" smooth="yes"/>
      <point x="105" y="459" type="curve" smooth="yes"/>
      <point x="74" y="459" smooth="yes"/>
      <point x="50" y="434" smooth="yes"/>
    </contour>
  </outline>
</glyph>
<glyph name="equal" format="1">
  <advance width="564"/>
  <unicode hex="003D"/>
  <outline>
    <contour>
      <point x="505" y="312" type="line" name="hr00"/>
      <point x="505" y="371" type="line"/>
      <point x="59" y="371" type="line"/>
      <point x="59" y="312" type="line"/>
    </contour>
    <contour>
      <point x="505" y="135" type="line"/>
      <point x="505" y="194" type="line"/>
      <point x="59" y="194" type="line"/>
      <point x="59" y="135" type="line"/>
    </contour>
  </outline>
</glyph>
<glyph name="B" format="1">
  <advance width="644"/>
  <unicode hex="0042"/>
  <outline>
    <contour>
      <point x="90" y="662" type="line"/>
      <point x="90" y="0" type="line"/>
      <point x="298" y="0" type="line"/>
      <point x="404" y="0" smooth="yes"/>
      <point x="568" y="49" smooth="yes"/>
      <point x="568" y="186" type="curve" smooth="yes"/>
      <point x="568" y="258"/>
      <point x="511" y="325"/>
      <point x="384" y="349" type="curve"/>
      <point x="474" y="376" smooth="yes"/>
      <point x="530" y="432" smooth="yes"/>
      <point x="530" y="506" type="curve" smooth="yes" name="hr01"/>
      <point x="530" y="615" smooth="yes"/>
      <point x="424" y="662" smooth="yes"/>
      <point x="279" y="662" type="curve" smooth="yes"/>
    </contour>
    <contour>
      <point x="187" y="359" type="line"/>
      <point x="187" y="606" type="line"/>
      <point x="221" y="617"/>
      <point x="279" y="626"/>
      <point x="317" y="626" type="curve"/>
      <point x="397" y="602" smooth="yes"/>
      <point x="429" y="552" smooth="yes"/>
      <point x="429" y="501" type="curve" smooth="yes"/>
      <point x="429" y="430"/>
      <point x="390" y="359"/>
      <point x="259" y="359" type="curve"/>
    </contour>
    <contour>
      <point x="187" y="330" type="line"/>
      <point x="263" y="330" type="line"/>
      <point x="370" y="330" smooth="yes"/>
      <point x="457" y="262" smooth="yes"/>
      <point x="457" y="178" type="curve" smooth="yes" name="hr02"/>
      <point x="457" y="81" smooth="yes"/>
      <point x="370" y="35" smooth="yes"/>
      <point x="278" y="35" type="curve" smooth="yes"/>
      <point x="246" y="35"/>
      <point x="206" y="39"/>
      <point x="187" y="45" type="curve"/>
    </contour>
  </outline>
</glyph>
<glyph name="E" format="1">
  <advance width="562"/>
  <unicode hex="0045"/>
  <outline>
    <contour>
      <point x="497" y="67" type="line" name="hr00"/>
      <point x="187" y="36" type="line"/>
      <point x="187" y="328" type="line"/>
      <point x="409" y="328" type="line"/>
      <point x="409" y="366" type="line"/>
      <point x="187" y="366" type="line"/>
      <point x="187" y="609" type="line"/>
      <point x="225" y="620"/>
      <point x="256" y="626"/>
      <point x="295" y="626" type="curve"/>
      <point x="481" y="595" type="line"/>
      <point x="491" y="662" type="line"/>
      <point x="90" y="662" type="line"/>
      <point x="90" y="0" type="line"/>
      <point x="487" y="0" type="line"/>
    </contour>
  </outline>
</glyph>
<glyph name="G" format="1">
  <advance width="680"/>
  <unicode hex="0047"/>
  <outline>
    <contour>
      <point x="606" y="285" type="line" name="hr00"/>
      <point x="509" y="285" type="line"/>
      <point x="509" y="33" type="line"/>
      <point x="480" y="26" smooth="yes"/>
      <point x="448" y="23" smooth="yes"/>
      <point x="418" y="23" type="curve" smooth="yes"/>
      <point x="256" y="23" smooth="yes"/>
      <point x="138" y="127" smooth="yes"/>
      <point x="138" y="328" type="curve" smooth="yes"/>
      <point x="138" y="484"/>
      <point x="222" y="599"/>
      <point x="356" y="633" type="curve"/>
      <point x="433" y="633"/>
      <point x="502" y="609"/>
      <point x="580" y="576" type="curve"/>
      <point x="590" y="643" type="line"/>
      <point x="557" y="657" smooth="yes"/>
      <point x="479" y="674" smooth="yes"/>
      <point x="417" y="674" type="curve" smooth="yes"/>
      <point x="247" y="674" smooth="yes"/>
      <point x="32" y="568" smooth="yes"/>
      <point x="32" y="312" type="curve" smooth="yes"/>
      <point x="32" y="91" smooth="yes"/>
      <point x="213" y="-12" smooth="yes"/>
      <point x="399" y="-12" type="curve" smooth="yes"/>
      <point x="458" y="-12"/>
      <point x="545" y="-2"/>
      <point x="606" y="22" type="curve"/>
    </contour>
  </outline>
</glyph>
<glyph name="I" format="1">
  <advance width="272"/>
  <unicode hex="0049"/>
  <outline>
    <contour>
      <point x="182" y="0" type="line" name="hr00"/>
      <point x="182" y="662" type="line"/>
      <point x="90" y="662" type="line"/>
      <point x="90" y="0" type="line"/>
    </contour>
  </outline>
</glyph>
<glyph name="J" format="1">
  <advance width="279"/>
  <unicode hex="004A"/>
  <outline>
    <contour>
      <point x="9" y="-177" type="curve" name="hr00"/>
      <point x="-32" y="-177"/>
      <point x="-96" y="-156"/>
      <point x="-132" y="-132" type="curve"/>
      <point x="-142" y="-210" type="line"/>
      <point x="-114" y="-218" smooth="yes"/>
      <point x="-71" y="-224" smooth="yes"/>
      <point x="-42" y="-224" type="curve" smooth="yes"/>
      <point x="87" y="-224" smooth="yes"/>
      <point x="189" y="-105" smooth="yes"/>
      <point x="189" y="41" type="curve" smooth="yes"/>
      <point x="189" y="662" type="line"/>
      <point x="90" y="662" type="line"/>
      <point x="90" y="41" type="line" smooth="yes"/>
      <point x="90" y="-56"/>
      <point x="54" y="-149"/>
    </contour>
  </outline>
</glyph>
<glyph name="L" format="1">
  <advance width="487"/>
  <unicode hex="004C"/>
  <outline>
    <contour>
      <point x="467" y="67" type="line" name="hr00"/>
      <point x="286" y="36" type="line"/>
      <point x="261" y="36"/>
      <point x="222" y="44"/>
      <point x="188" y="54" type="curve"/>
      <point x="188" y="662" type="line"/>
      <point x="90" y="662" type="line"/>
      <point x="90" y="0" type="line"/>
      <point x="455" y="0" type="line"/>
    </contour>
  </outline>
</glyph>
<glyph name="N" format="1">
  <advance width="683"/>
  <unicode hex="004E"/>
  <outline>
    <contour>
      <point x="576" y="-11" type="line" name="hr00"/>
      <point x="593" y="-11" type="line"/>
      <point x="593" y="662" type="line"/>
      <point x="549" y="662" type="line"/>
      <point x="549" y="181" type="line"/>
      <point x="545" y="181" type="line"/>
      <point x="164" y="662" type="line"/>
      <point x="90" y="662" type="line"/>
      <point x="90" y="0" type="line"/>
      <point x="134" y="0" type="line"/>
      <point x="134" y="537" type="line"/>
      <point x="138" y="537" type="line"/>
    </contour>
  </outline>
</glyph>
<glyph name="R" format="1">
  <advance width="638"/>
  <unicode hex="0052"/>
  <outline>
    <contour>
      <point x="265" y="316" type="line" name="hr00"/>
      <point x="497" y="-14" type="line"/>
      <point x="613" y="0" type="line"/>
      <point x="345" y="324" type="line"/>
      <point x="456" y="344" smooth="yes"/>
      <point x="536" y="398" smooth="yes"/>
      <point x="536" y="493" type="curve" smooth="yes"/>
      <point x="536" y="602" smooth="yes"/>
      <point x="436" y="662" smooth="yes"/>
      <point x="306" y="662" type="curve" smooth="yes"/>
      <point x="90" y="662" type="line"/>
      <point x="90" y="0" type="line"/>
      <point x="188" y="0" type="line"/>
      <point x="188" y="316" type="line"/>
    </contour>
    <contour>
      <point x="188" y="346" type="line"/>
      <point x="188" y="608" type="line"/>
      <point x="223" y="617"/>
      <point x="283" y="625"/>
      <point x="322" y="625" type="curve"/>
      <point x="429" y="595" smooth="yes"/>
      <point x="432" y="502" smooth="yes"/>
      <point x="432" y="488" type="curve" smooth="yes"/>
      <point x="432" y="418"/>
      <point x="397" y="346"/>
      <point x="252" y="346" type="curve"/>
    </contour>
  </outline>
</glyph>
<glyph name="U" format="1">
  <advance width="657"/>
  <unicode hex="0055"/>
  <outline>
    <contour>
      <point x="582" y="662" type="line" name="hr00"/>
      <point x="538" y="662" type="line"/>
      <point x="538" y="232" type="line" smooth="yes"/>
      <point x="538" y="88" smooth="yes"/>
      <point x="466" y="32" smooth="yes"/>
      <point x="351" y="32" type="curve" smooth="yes"/>
      <point x="177" y="32" smooth="yes"/>
      <point x="177" y="171" smooth="yes"/>
      <point x="177" y="235" type="curve" smooth="yes"/>
      <point x="177" y="662" type="line"/>
      <point x="75" y="662" type="line"/>
      <point x="75" y="243" type="line" smooth="yes"/>
      <point x="75" y="183" smooth="yes"/>
      <point x="75" y="-12" smooth="yes"/>
      <point x="323" y="-12" type="curve" smooth="yes"/>
      <point x="582" y="-12" smooth="yes"/>
      <point x="582" y="176" smooth="yes"/>
      <point x="582" y="256" type="curve" smooth="yes"/>
    </contour>
  </outline>
</glyph>
<glyph name="Y" format="1">
  <advance width="557"/>
  <unicode hex="0059"/>
  <outline>
    <contour>
      <point x="343" y="251" type="line" name="hr00"/>
      <point x="537" y="662" type="line"/>
      <point x="487" y="662" type="line"/>
      <point x="314" y="282" type="line"/>
      <point x="129" y="662" type="line"/>
      <point x="20" y="662" type="line"/>
      <point x="246" y="246" type="line"/>
      <point x="246" y="0" type="line"/>
      <point x="343" y="0" type="line"/>
    </contour>
  </outline>
</glyph>
<glyph name="Z" format="1">
  <advance width="571"/>
  <unicode hex="005A"/>
  <outline>
    <contour>
      <point x="147" y="40" type="line" name="hr00"/>
      <point x="541" y="652" type="line"/>
      <point x="541" y="662" type="line"/>
      <point x="73" y="662" type="line"/>
      <point x="83" y="595" type="line"/>
      <point x="289" y="626" type="line"/>
      <point x="329" y="626"/>
      <point x="360" y="620"/>
      <point x="398" y="609" type="curve"/>
      <point x="16" y="10" type="line"/>
      <point x="16" y="0" type="line"/>
      <point x="516" y="0" type="line"/>
      <point x="506" y="67" type="line"/>
    </contour>
  </outline>
</glyph>
<glyph name="bracketright" format="1">
  <advance width="333"/>
  <unicode hex="005D"/>
  <outline>
    <contour>
      <point x="169" y="-102" type="line" name="hr00"/>
      <point x="34" y="-130" type="line"/>
      <point x="34" y="-156" type="line"/>
      <point x="245" y="-140" type="line"/>
      <point x="245" y="646" type="line"/>
      <point x="34" y="662" type="line"/>
      <point x="34" y="637" type="line"/>
      <point x="169" y="608" type="line"/>
    </contour>
  </outline>
</glyph>
<glyph name="asciicircum" format="1">
  <advance width="469"/>
  <unicode hex="005E"/>
  <outline>
    <contour>
      <point x="24" y="297" type="line" name="hr00"/>
      <point x="92" y="297" type="line"/>
      <point x="235" y="586" type="line"/>
      <point x="378" y="297" type="line"/>
      <point x="446" y="297" type="line"/>
      <point x="265" y="662" type="line"/>
      <point x="205" y="662" type="line"/>
    </contour>
  </outline>
</glyph>
<glyph name="grave" format="1">
  <advance width="333"/>
  <unicode hex="0060"/>
  <outline>
    <contour>
      <point x="242" y="507" type="line" name="hr00"/>
      <point x="202" y="507" type="line"/>
      <point x="14" y="645" type="line"/>
      <point x="70" y="695" type="line"/>
    </contour>
  </outline>
</glyph>
<glyph name="a" format="1">
  <advance width="444"/>
  <unicode hex="0061"/>
  <outline>
    <contour>
      <point x="178" y="34" type="curve"/>
      <point x="146" y="45" smooth="yes"/>
      <point x="121" y="76" smooth="yes"/>
      <point x="121" y="118" type="curve" smooth="yes"/>
      <point x="121" y="159"/>
      <point x="185" y="202"/>
      <point x="285" y="209" type="curve"/>
      <point x="285" y="106" type="line" smooth="yes"/>
      <point x="285" y="91"/>
      <point x="225" y="43"/>
    </contour>
    <contour>
      <point x="367" y="303" type="line"/>
      <point x="367" y="362" smooth="yes"/>
      <point x="367" y="464" smooth="yes"/>
      <point x="216" y="464" type="curve" smooth="yes"/>
      <point x="146" y="464"/>
      <point x="71" y="429"/>
      <point x="50" y="412" type="curve"/>
      <point x="59" y="387" type="line" smooth="yes"/>
      <point x="112" y="404" smooth="yes"/>
      <point x="155" y="411" smooth="yes"/>
      <point x="189" y="411" type="curve" smooth="yes"/>
      <point x="254" y="411"/>
      <point x="285" y="383"/>
      <point x="285" y="328" type="curve"/>
      <point x="285" y="234" type="line" smooth="yes"/>
      <point x="194" y="228" smooth="yes"/>
      <point x="33" y="197" smooth="yes"/>
      <point x="33" y="92" type="curve" smooth="yes"/>
      <point x="33" y="25" smooth="yes"/>
      <point x="85" y="-12" smooth="yes"/>
      <point x="140" y="-12" type="curve" smooth="yes"/>
      <point x="195" y="-12"/>
      <point x="238" y="16"/>
      <point x="286" y="60" type="curve"/>
      <point x="367" y="-13" type="line" name="hr01"/>
      <point x="419" y="25" type="line" smooth="yes"/>
      <point x="402" y="37" smooth="yes"/>
      <point x="367" y="64" smooth="yes"/>
      <point x="367" y="133" type="curve" smooth="yes"/>
    </contour>
  </outline>
</glyph>
<glyph name="c" format="1">
  <advance width="406"/>
  <unicode hex="0063"/>
  <outline>
    <contour>
      <point x="369" y="70" type="line" name="hr00"/>
      <point x="340" y="55" smooth="yes"/>
      <point x="305" y="43" smooth="yes"/>
      <point x="258" y="43" type="curve" smooth="yes"/>
      <point x="173" y="43" smooth="yes"/>
      <point x="104" y="117" smooth="yes"/>
      <point x="104" y="220" type="curve" smooth="yes"/>
      <point x="104" y="279"/>
      <point x="125" y="379"/>
      <point x="202" y="418" type="curve"/>
      <point x="235" y="418"/>
      <point x="290" y="405"/>
      <point x="353" y="372" type="curve"/>
      <point x="363" y="438" type="line"/>
      <point x="340" y="447" smooth="yes"/>
      <point x="288" y="464" smooth="yes"/>
      <point x="244" y="464" type="curve" smooth="yes"/>
      <point x="119" y="464" smooth="yes"/>
      <point x="26" y="365" smooth="yes"/>
      <point x="26" y="212" type="curve" smooth="yes"/>
      <point x="26" y="67" smooth="yes"/>
      <point x="116" y="-12" smooth="yes"/>
      <point x="228" y="-12" type="curve" smooth="yes"/>
      <point x="284" y="-12"/>
      <point x="332" y="11"/>
      <point x="369" y="35" type="curve"/>
    </contour>
  </outline>
</glyph>
<glyph name="e" format="1">
  <advance width="469"/>
  <unicode hex="0065"/>
  <outline>
    <contour>
      <point x="424" y="246" type="line" name="hr00"/>
      <point x="424" y="389" smooth="yes"/>
      <point x="346" y="464" smooth="yes"/>
      <point x="253" y="464" type="curve" smooth="yes"/>
      <point x="135" y="464" smooth="yes"/>
      <point x="26" y="377" smooth="yes"/>
      <point x="26" y="212" type="curve" smooth="yes"/>
      <point x="26" y="67" smooth="yes"/>
      <point x="118" y="-12" smooth="yes"/>
      <point x="243" y="-12" type="curve" smooth="yes"/>
      <point x="304" y="-12"/>
      <point x="358" y="11"/>
      <point x="400" y="35" type="curve"/>
      <point x="400" y="70" type="line"/>
      <point x="367" y="55" smooth="yes"/>
      <point x="328" y="43" smooth="yes"/>
      <point x="276" y="43" type="curve" smooth="yes"/>
      <point x="189" y="43" smooth="yes"/>
      <point x="105" y="90" smooth="yes"/>
      <point x="105" y="246" type="curve" smooth="yes"/>
    </contour>
    <contour>
      <point x="202" y="417" type="curve"/>
      <point x="243" y="417"/>
      <point x="334" y="396"/>
      <point x="343" y="276" type="curve"/>
      <point x="109" y="276" type="line"/>
      <point x="120" y="342"/>
      <point x="156" y="395"/>
    </contour>
  </outline>
</glyph>
<glyph name="f" format="1">
  <advance width="333"/>
  <unicode hex="0066"/>
  <outline>
    <contour>
      <point x="254" y="645" type="curve" name="hr00"/>
      <point x="277" y="645"/>
      <point x="332" y="631"/>
      <point x="363" y="615" type="curve"/>
      <point x="373" y="680" type="line"/>
      <point x="349" y="686" smooth="yes"/>
      <point x="321" y="692" smooth="yes"/>
      <point x="297" y="692" type="curve" smooth="yes"/>
      <point x="179" y="692"/>
      <point x="112" y="588"/>
      <point x="104" y="452" type="curve"/>
      <point x="21" y="452" type="line"/>
      <point x="21" y="432" type="line"/>
      <point x="103" y="416" type="line"/>
      <point x="103" y="0" type="line"/>
      <point x="187" y="0" type="line"/>
      <point x="187" y="416" type="line"/>
      <point x="308" y="416" type="line"/>
      <point x="308" y="452" type="line"/>
      <point x="187" y="452" type="line"/>
      <point x="189" y="505"/>
      <point x="203" y="619"/>
    </contour>
  </outline>
</glyph>
<glyph name="h" format="1">
  <advance width="503"/>
  <unicode hex="0068"/>
  <outline>
    <contour>
      <point x="314" y="462" type="curve" name="hr00"/>
      <point x="255" y="462"/>
      <point x="206" y="434"/>
      <point x="157" y="388" type="curve"/>
      <point x="157" y="683" type="line"/>
      <point x="76" y="683" type="line"/>
      <point x="76" y="0" type="line"/>
      <point x="160" y="0" type="line"/>
      <point x="160" y="346" type="line"/>
      <point x="198" y="383" smooth="yes"/>
      <point x="240" y="399" smooth="yes"/>
      <point x="270" y="399" type="curve" smooth="yes"/>
      <point x="330" y="399"/>
      <point x="348" y="363"/>
      <point x="348" y="301" type="curve"/>
      <point x="348" y="0" type="line"/>
      <point x="432" y="0" type="line"/>
      <point x="432" y="311" type="line"/>
      <point x="432" y="435" smooth="yes"/>
      <point x="361" y="462" smooth="yes"/>
    </contour>
  </outline>
</glyph>
<glyph name="n" format="1">
  <advance width="500"/>
  <unicode hex="006E"/>
  <outline>
    <contour>
      <point x="308" y="464" type="curve" name="hr00"/>
      <point x="249" y="464"/>
      <point x="211" y="434"/>
      <point x="162" y="388" type="curve"/>
      <point x="80" y="461" type="line"/>
      <point x="29" y="423" type="line"/>
      <point x="45" y="410" smooth="yes"/>
      <point x="80" y="383" smooth="yes"/>
      <point x="80" y="314" type="curve" smooth="yes"/>
      <point x="80" y="0" type="line"/>
      <point x="165" y="0" type="line"/>
      <point x="165" y="345" type="line"/>
      <point x="203" y="383" smooth="yes"/>
      <point x="234" y="401" smooth="yes"/>
      <point x="264" y="401" type="curve" smooth="yes"/>
      <point x="323" y="401" smooth="yes"/>
      <point x="341" y="365" smooth="yes"/>
      <point x="341" y="303" type="curve" smooth="yes"/>
      <point x="341" y="0" type="line"/>
      <point x="426" y="0" type="line"/>
      <point x="426" y="313" type="line" smooth="yes"/>
      <point x="426" y="437" smooth="yes"/>
      <point x="354" y="464" smooth="yes"/>
    </contour>
  </outline>
</glyph>
<glyph name="o" format="1">
  <advance width="500"/>
  <unicode hex="006F"/>
  <outline>
    <contour>
      <point x="268" y="464" type="curve" name="hr00"/>
      <point x="165" y="464" smooth="yes"/>
      <point x="27" y="402" smooth="yes"/>
      <point x="27" y="213" type="curve" smooth="yes"/>
      <point x="27" y="68" smooth="yes"/>
      <point x="117" y="-12" smooth="yes"/>
      <point x="229" y="-12" type="curve" smooth="yes"/>
      <point x="332" y="-12" smooth="yes"/>
      <point x="471" y="50" smooth="yes"/>
      <point x="471" y="239" type="curve" smooth="yes"/>
      <point x="471" y="384" smooth="yes"/>
      <point x="381" y="464" smooth="yes"/>
    </contour>
    <contour>
      <point x="248" y="22" type="curve"/>
      <point x="154" y="22" smooth="yes"/>
      <point x="118" y="117" smooth="yes"/>
      <point x="118" y="224" type="curve" smooth="yes"/>
      <point x="118" y="311"/>
      <point x="154" y="395"/>
      <point x="234" y="426" type="curve"/>
      <point x="344" y="426" smooth="yes"/>
      <point x="379" y="333" smooth="yes"/>
      <point x="379" y="224" type="curve" smooth="yes"/>
      <point x="379" y="137" smooth="yes"/>
      <point x="342" y="22" smooth="yes"/>
    </contour>
  </outline>
</glyph>
<glyph name="t" format="1">
  <advance width="329"/>
  <unicode hex="0074"/>
  <outline>
    <contour>
      <point x="230" y="28" type="curve" name="hr00"/>
      <point x="187" y="28" smooth="yes"/>
      <point x="175" y="50" smooth="yes"/>
      <point x="175" y="88" type="curve" smooth="yes"/>
      <point x="175" y="416" type="line"/>
      <point x="294" y="416" type="line"/>
      <point x="294" y="452" type="line"/>
      <point x="175" y="452" type="line"/>
      <point x="175" y="549" type="line"/>
      <point x="91" y="488" type="line"/>
      <point x="91" y="452" type="line"/>
      <point x="10" y="452" type="line"/>
      <point x="10" y="432" type="line"/>
      <point x="91" y="416" type="line"/>
      <point x="91" y="93" type="line" smooth="yes"/>
      <point x="91" y="17" smooth="yes"/>
      <point x="133" y="-12" smooth="yes"/>
      <point x="188" y="-12" type="curve" smooth="yes"/>
      <point x="227" y="-12"/>
      <point x="264" y="1"/>
      <point x="294" y="15" type="curve"/>
      <point x="294" y="43" type="line"/>
      <point x="273" y="35" smooth="yes"/>
      <point x="248" y="28" smooth="yes"/>
    </contour>
  </outline>
</glyph>
<glyph name="x" format="1">
  <advance width="474"/>
  <unicode hex="0078"/>
  <outline>
    <contour>
      <point x="444" y="0" type="line" name="hr00"/>
      <point x="265" y="249" type="line"/>
      <point x="429" y="452" type="line"/>
      <point x="380" y="452" type="line"/>
      <point x="246" y="270" type="line"/>
      <point x="132" y="452" type="line"/>
      <point x="33" y="452" type="line"/>
      <point x="196" y="211" type="line"/>
      <point x="30" y="0" type="line"/>
      <point x="78" y="0" type="line"/>
      <point x="216" y="189" type="line"/>
      <point x="345" y="0" type="line"/>
    </contour>
  </outline>
</glyph>
<glyph name="braceleft" format="1">
  <advance width="480"/>
  <unicode hex="007B"/>
  <outline>
    <contour>
      <point x="126" y="241" type="line" name="hr00"/>
      <point x="177" y="239" smooth="yes"/>
      <point x="186" y="192" smooth="yes"/>
      <point x="186" y="163" type="curve" smooth="yes"/>
      <point x="186" y="-45" type="line" smooth="yes"/>
      <point x="186" y="-137"/>
      <point x="217" y="-182"/>
      <point x="314" y="-182" type="curve"/>
      <point x="325" y="-182"/>
      <point x="345" y="-179"/>
      <point x="358" y="-175" type="curve"/>
      <point x="358" y="-145" type="line"/>
      <point x="341" y="-150" smooth="yes"/>
      <point x="315" y="-154" smooth="yes"/>
      <point x="300" y="-154" type="curve" smooth="yes"/>
      <point x="258" y="-142" smooth="yes"/>
      <point x="256" y="-113" smooth="yes"/>
      <point x="256" y="-69" type="curve" smooth="yes"/>
      <point x="256" y="138" type="line" smooth="yes"/>
      <point x="256" y="204"/>
      <point x="224" y="229"/>
      <point x="175" y="250" type="curve"/>
      <point x="224" y="270" smooth="yes"/>
      <point x="256" y="296" smooth="yes"/>
      <point x="256" y="362" type="curve" smooth="yes"/>
      <point x="256" y="569" type="line" smooth="yes"/>
      <point x="256" y="613"/>
      <point x="258" y="642"/>
      <point x="300" y="654" type="curve"/>
      <point x="317" y="654"/>
      <point x="343" y="650"/>
      <point x="358" y="644" type="curve"/>
      <point x="358" y="675" type="line"/>
      <point x="345" y="679" smooth="yes"/>
      <point x="325" y="682" smooth="yes"/>
      <point x="314" y="682" type="curve" smooth="yes"/>
      <point x="217" y="682" smooth="yes"/>
      <point x="186" y="637" smooth="yes"/>
      <point x="186" y="545" type="curve" smooth="yes"/>
      <point x="186" y="337" type="line" smooth="yes"/>
      <point x="186" y="308"/>
      <point x="177" y="260"/>
      <point x="126" y="259" type="curve"/>
    </contour>
  </outline>
</glyph>
<glyph name="bar" format="1">
  <advance width="200"/>
  <unicode hex="007C"/>
  <outline>
    <contour>
      <point x="133" y="782" type="line" name="hr00"/>
      <point x="67" y="782" type="line"/>
      <point x="67" y="-218" type="line"/>
      <point x="133" y="-218" type="line"/>
    </contour>
  </outline>
</glyph>
<glyph name="braceright" format="1">
  <advance width="480"/>
  <unicode hex="007D"/>
  <outline>
    <contour>
      <point x="355" y="259" type="line" name="hr00"/>
      <point x="304" y="261" smooth="yes"/>
      <point x="295" y="308" smooth="yes"/>
      <point x="295" y="337" type="curve" smooth="yes"/>
      <point x="295" y="545" type="line" smooth="yes"/>
      <point x="295" y="637"/>
      <point x="264" y="682"/>
      <point x="167" y="682" type="curve"/>
      <point x="156" y="682"/>
      <point x="136" y="679"/>
      <point x="123" y="675" type="curve"/>
      <point x="123" y="645" type="line"/>
      <point x="140" y="650" smooth="yes"/>
      <point x="166" y="654" smooth="yes"/>
      <point x="181" y="654" type="curve" smooth="yes"/>
      <point x="223" y="642" smooth="yes"/>
      <point x="225" y="613" smooth="yes"/>
      <point x="225" y="569" type="curve" smooth="yes"/>
      <point x="225" y="362" type="line" smooth="yes"/>
      <point x="225" y="296"/>
      <point x="257" y="271"/>
      <point x="306" y="250" type="curve"/>
      <point x="257" y="230" smooth="yes"/>
      <point x="225" y="204" smooth="yes"/>
      <point x="225" y="138" type="curve" smooth="yes"/>
      <point x="225" y="-69" type="line" smooth="yes"/>
      <point x="225" y="-113"/>
      <point x="223" y="-142"/>
      <point x="181" y="-154" type="curve"/>
      <point x="164" y="-154"/>
      <point x="138" y="-150"/>
      <point x="123" y="-144" type="curve"/>
      <point x="123" y="-175" type="line"/>
      <point x="136" y="-179" smooth="yes"/>
      <point x="156" y="-182" smooth="yes"/>
      <point x="167" y="-182" type="curve" smooth="yes"/>
      <point x="264" y="-182" smooth="yes"/>
      <point x="295" y="-137" smooth="yes"/>
      <point x="295" y="-45" type="curve" smooth="yes"/>
      <point x="295" y="163" type="line" smooth="yes"/>
      <point x="295" y="192"/>
      <point x="304" y="240"/>
      <point x="355" y="241" type="curve"/>
    </contour>
  </outline>
</glyph>
<glyph name="exclamdown" format="1">
  <advance width="333"/>
  <unicode hex="00A1"/>
  <outline>
    <contour>
      <point x="102" y="-196" type="line" name="hr00"/>
      <point x="132" y="299" type="line"/>
      <point x="167" y="299" type="line"/>
      <point x="197" y="-196" type="line"/>
    </contour>
    <contour>
      <point x="204" y="415" type="curve"/>
      <point x="204" y="451" smooth="yes"/>
      <point x="173" y="466" smooth="yes"/>
      <point x="149" y="466" type="curve" smooth="yes"/>
      <point x="128" y="466" smooth="yes"/>
      <point x="95" y="453" smooth="yes"/>
      <point x="95" y="415" type="curve" smooth="yes"/>
      <point x="95" y="384" smooth="yes"/>
      <point x="120" y="361" smooth="yes"/>
      <point x="149" y="361" type="curve" smooth="yes"/>
      <point x="180" y="361" smooth="yes"/>
      <point x="204" y="386" smooth="yes"/>
    </contour>
  </outline>
</glyph>
<glyph name="cent" format="1">
  <advance width="500"/>
  <unicode hex="00A2"/>
  <outline>
    <contour>
      <point x="264" y="-87" type="line" name="hr00"/>
      <point x="298" y="-87" type="line"/>
      <point x="298" y="-13" type="line"/>
      <point x="350" y="-10"/>
      <point x="394" y="11"/>
      <point x="429" y="34" type="curve"/>
      <point x="429" y="69" type="line"/>
      <point x="400" y="54" smooth="yes"/>
      <point x="365" y="42" smooth="yes"/>
      <point x="318" y="42" type="curve" smooth="yes"/>
      <point x="311" y="42"/>
      <point x="304" y="42"/>
      <point x="298" y="43" type="curve"/>
      <point x="298" y="413" type="line"/>
      <point x="339" y="408"/>
      <point x="362" y="398"/>
      <point x="403" y="379" type="curve"/>
      <point x="423" y="435" type="line"/>
      <point x="400" y="444"/>
      <point x="348" y="461"/>
      <point x="298" y="461" type="curve"/>
      <point x="298" y="538" type="line"/>
      <point x="264" y="538" type="line"/>
      <point x="264" y="457" type="line"/>
      <point x="159" y="439" smooth="yes"/>
      <point x="86" y="347" smooth="yes"/>
      <point x="86" y="211" type="curve" smooth="yes"/>
      <point x="86" y="76"/>
      <point x="163" y="-1"/>
      <point x="264" y="-11" type="curve"/>
    </contour>
    <contour>
      <point x="164" y="219" type="curve"/>
      <point x="164" y="278"/>
      <point x="186" y="376"/>
      <point x="263" y="415" type="curve"/>
      <point x="263" y="52" type="line"/>
      <point x="206" y="76" smooth="yes"/>
      <point x="164" y="139" smooth="yes"/>
    </contour>
  </outline>
</glyph>
<glyph name="currency" format="1">
  <advance width="452"/>
  <unicode hex="00A4"/>
  <outline>
    <contour>
      <point x="226" y="259" type="curve" name="hr00"/>
      <point x="174" y="259" smooth="yes"/>
      <point x="132" y="305" smooth="yes"/>
      <point x="132" y="357" type="curve" smooth="yes"/>
      <point x="132" y="409" smooth="yes"/>
      <point x="174" y="455" smooth="yes"/>
      <point x="226" y="455" type="curve" smooth="yes"/>
      <point x="278" y="455" smooth="yes"/>
      <point x="320" y="409" smooth="yes"/>
      <point x="320" y="357" type="curve" smooth="yes"/>
      <point x="320" y="305" smooth="yes"/>
      <point x="278" y="259" smooth="yes"/>
    </contour>
    <contour>
      <point x="226" y="214" type="curve"/>
      <point x="306" y="214" smooth="yes"/>
      <point x="369" y="277" smooth="yes"/>
      <point x="369" y="357" type="curve" smooth="yes"/>
      <point x="369" y="437" smooth="yes"/>
      <point x="306" y="501" smooth="yes"/>
      <point x="226" y="501" type="curve" smooth="yes"/>
      <point x="146" y="501" smooth="yes"/>
      <point x="83" y="437" smooth="yes"/>
      <point x="83" y="357" type="curve" smooth="yes"/>
      <point x="83" y="277" smooth="yes"/>
      <point x="146" y="214" smooth="yes"/>
    </contour>
    <contour>
      <point x="126" y="431" type="line"/>
      <point x="152" y="457" type="line"/>
      <point x="46" y="563" type="line"/>
      <point x="20" y="537" type="line"/>
    </contour>
    <contour>
      <point x="406" y="151" type="line"/>
      <point x="432" y="177" type="line"/>
      <point x="326" y="283" type="line"/>
      <point x="300" y="257" type="line"/>
    </contour>
    <contour>
      <point x="152" y="257" type="line"/>
      <point x="126" y="283" type="line"/>
      <point x="20" y="177" type="line"/>
      <point x="46" y="151" type="line"/>
    </contour>
    <contour>
      <point x="432" y="537" type="line"/>
      <point x="406" y="563" type="line"/>
      <point x="300" y="457" type="line"/>
      <point x="326" y="431" type="line"/>
    </contour>
  </outline>
</glyph>
<glyph name="section" format="1">
  <advance width="500"/>
  <unicode hex="00A7"/>
  <outline>
    <contour>
      <point x="321" y="129" type="curve"/>
      <point x="391" y="151" smooth="yes"/>
      <point x="426" y="204" smooth="yes"/>
      <point x="426" y="270" type="curve" smooth="yes"/>
      <point x="426" y="431" smooth="yes"/>
      <point x="172" y="450" smooth="yes"/>
      <point x="172" y="573" type="curve" smooth="yes"/>
      <point x="172" y="600"/>
      <point x="185" y="624"/>
      <point x="212" y="638" type="curve"/>
      <point x="270" y="638"/>
      <point x="330" y="622"/>
      <point x="390" y="595" type="curve"/>
      <point x="390" y="649" type="line"/>
      <point x="353" y="666" smooth="yes"/>
      <point x="294" y="680" smooth="yes"/>
      <point x="258" y="680" type="curve" smooth="yes"/>
      <point x="145" y="680" smooth="yes"/>
      <point x="105" y="603" smooth="yes"/>
      <point x="105" y="540" type="curve" smooth="yes"/>
      <point x="105" y="478"/>
      <point x="140" y="439"/>
      <point x="183" y="408" type="curve"/>
      <point x="101" y="392" smooth="yes"/>
      <point x="71" y="327" smooth="yes"/>
      <point x="71" y="272" type="curve" smooth="yes" name="hr01"/>
      <point x="71" y="110" smooth="yes"/>
      <point x="314" y="105" smooth="yes"/>
      <point x="314" y="-14" type="curve" smooth="yes"/>
      <point x="314" y="-82" smooth="yes"/>
      <point x="269" y="-120" smooth="yes"/>
      <point x="202" y="-120" type="curve" smooth="yes"/>
      <point x="152" y="-120"/>
      <point x="93" y="-92"/>
      <point x="67" y="-78" type="curve"/>
      <point x="67" y="-116" type="line"/>
      <point x="97" y="-129" smooth="yes"/>
      <point x="154" y="-148" smooth="yes"/>
      <point x="214" y="-148" type="curve" smooth="yes"/>
      <point x="333" y="-148" smooth="yes"/>
      <point x="392" y="-83" smooth="yes"/>
      <point x="392" y="2" type="curve" smooth="yes"/>
      <point x="392" y="58"/>
      <point x="361" y="97"/>
    </contour>
    <contour>
      <point x="138" y="305" type="curve"/>
      <point x="138" y="332"/>
      <point x="151" y="356"/>
      <point x="177" y="370" type="curve"/>
      <point x="206" y="370"/>
      <point x="240" y="367"/>
      <point x="254" y="364" type="curve"/>
      <point x="305" y="334" smooth="yes"/>
      <point x="348" y="304" smooth="yes"/>
      <point x="348" y="254" type="curve" smooth="yes" name="hr02"/>
      <point x="348" y="204"/>
      <point x="324" y="170"/>
      <point x="285" y="155" type="curve"/>
      <point x="215" y="201" smooth="yes"/>
      <point x="138" y="237" smooth="yes"/>
    </contour>
  </outline>
</glyph>
<glyph name="ordfeminine" format="1">
  <advance width="262"/>
  <unicode hex="00AA"/>
  <outline>
    <contour>
      <point x="217" y="483" type="curve" name="hr00"/>
      <point x="217" y="579" type="line"/>
      <point x="217" y="615"/>
      <point x="217" y="677"/>
      <point x="126" y="677" type="curve"/>
      <point x="85" y="677"/>
      <point x="39" y="654"/>
      <point x="25" y="643" type="curve"/>
      <point x="33" y="619" type="line"/>
      <point x="67" y="631"/>
      <point x="92" y="636"/>
      <point x="111" y="636" type="curve"/>
      <point x="143" y="636"/>
      <point x="159" y="621"/>
      <point x="159" y="594" type="curve"/>
      <point x="159" y="546" type="line"/>
      <point x="105" y="542"/>
      <point x="17" y="521"/>
      <point x="17" y="460" type="curve"/>
      <point x="17" y="418"/>
      <point x="49" y="394"/>
      <point x="83" y="394" type="curve"/>
      <point x="114" y="394"/>
      <point x="139" y="410"/>
      <point x="165" y="434" type="curve"/>
      <point x="212" y="392" type="line"/>
      <point x="251" y="422" type="line"/>
      <point x="240" y="429"/>
      <point x="217" y="446"/>
    </contour>
    <contour>
      <point x="78" y="475" type="curve"/>
      <point x="78" y="495"/>
      <point x="110" y="515"/>
      <point x="159" y="521" type="curve"/>
      <point x="159" y="468" type="line"/>
      <point x="159" y="461"/>
      <point x="130" y="439"/>
      <point x="105" y="432" type="curve"/>
      <point x="89" y="439"/>
      <point x="78" y="453"/>
    </contour>
  </outline>
</glyph>
<glyph name="guillemotleft" format="1">
  <advance width="500"/>
  <unicode hex="00AB"/>
  <outline>
    <contour>
      <point x="42" y="227" type="line" name="hr00"/>
      <point x="253" y="33" type="line"/>
      <point x="259" y="33" smooth="yes"/>
      <point x="264" y="37" smooth="yes"/>
      <point x="264" y="44" type="curve" smooth="yes"/>
      <point x="135" y="225" type="line"/>
      <point x="263" y="405" type="line"/>
      <point x="263" y="412" smooth="yes"/>
      <point x="261" y="416" smooth="yes"/>
      <point x="253" y="416" type="curve" smooth="yes"/>
    </contour>
    <contour>
      <point x="234" y="227" type="line"/>
      <point x="445" y="33" type="line"/>
      <point x="451" y="33" smooth="yes"/>
      <point x="456" y="37" smooth="yes"/>
      <point x="456" y="44" type="curve" smooth="yes"/>
      <point x="327" y="225" type="line"/>
      <point x="455" y="405" type="line"/>
      <point x="455" y="412" smooth="yes"/>
      <point x="453" y="416" smooth="yes"/>
      <point x="445" y="416" type="curve" smooth="yes"/>
    </contour>
  </outline>
</glyph>
<glyph name="registered" format="1">
  <advance width="760"/>
  <unicode hex="00AE"/>
  <outline>
    <contour>
      <point x="722" y="330" type="curve" name="hr00"/>
      <point x="722" y="521" smooth="yes"/>
      <point x="573" y="677" smooth="yes"/>
      <point x="382" y="677" type="curve" smooth="yes"/>
      <point x="188" y="677" smooth="yes"/>
      <point x="38" y="521" smooth="yes"/>
      <point x="38" y="330" type="curve" smooth="yes"/>
      <point x="38" y="139" smooth="yes"/>
      <point x="188" y="-14" smooth="yes"/>
      <point x="382" y="-14" type="curve" smooth="yes"/>
      <point x="573" y="-14" smooth="yes"/>
      <point x="722" y="139" smooth="yes"/>
    </contour>
    <contour>
      <point x="667" y="330" type="curve"/>
      <point x="667" y="170" smooth="yes"/>
      <point x="540" y="28" smooth="yes"/>
      <point x="382" y="28" type="curve" smooth="yes"/>
      <point x="220" y="28" smooth="yes"/>
      <point x="93" y="170" smooth="yes"/>
      <point x="93" y="330" type="curve" smooth="yes"/>
      <point x="93" y="491" smooth="yes"/>
      <point x="219" y="634" smooth="yes"/>
      <point x="382" y="634" type="curve" smooth="yes"/>
      <point x="542" y="634" smooth="yes"/>
      <point x="667" y="492" smooth="yes"/>
    </contour>
    <contour>
      <point x="359" y="318" type="line"/>
      <point x="469" y="107" type="line"/>
      <point x="559" y="118" type="line"/>
      <point x="426" y="325" type="line"/>
      <point x="494" y="339" smooth="yes"/>
      <point x="542" y="377" smooth="yes"/>
      <point x="542" y="437" type="curve" smooth="yes"/>
      <point x="542" y="512" smooth="yes"/>
      <point x="475" y="552" smooth="yes"/>
      <point x="389" y="552" type="curve" smooth="yes"/>
      <point x="244" y="552" type="line"/>
      <point x="244" y="117" type="line"/>
      <point x="321" y="117" type="line"/>
      <point x="321" y="318" type="line"/>
    </contour>
    <contour>
      <point x="321" y="350" type="line"/>
      <point x="321" y="505" type="line"/>
      <point x="343" y="510"/>
      <point x="376" y="515"/>
      <point x="397" y="515" type="curve"/>
      <point x="459" y="496" smooth="yes"/>
      <point x="463" y="442" smooth="yes"/>
      <point x="463" y="434" type="curve" smooth="yes"/>
      <point x="463" y="392" smooth="yes"/>
      <point x="441" y="350" smooth="yes"/>
      <point x="355" y="350" type="curve" smooth="yes"/>
    </contour>
  </outline>
</glyph>
<glyph name="plusminus" format="1">
  <advance width="564"/>
  <unicode hex="00B1"/>
  <outline>
    <contour>
      <point x="253" y="553" type="line" name="hr00"/>
      <point x="253" y="358" type="line"/>
      <point x="59" y="358" type="line"/>
      <point x="59" y="300" type="line"/>
      <point x="253" y="300" type="line"/>
      <point x="253" y="105" type="line"/>
      <point x="311" y="105" type="line"/>
      <point x="311" y="300" type="line"/>
      <point x="505" y="300" type="line"/>
      <point x="505" y="358" type="line"/>
      <point x="311" y="358" type="line"/>
      <point x="311" y="553" type="line"/>
    </contour>
    <contour>
      <point x="59" y="0" type="line"/>
      <point x="505" y="0" type="line"/>
      <point x="505" y="58" type="line"/>
      <point x="59" y="58" type="line"/>
    </contour>
  </outline>
</glyph>
<glyph name="acute" format="1">
  <advance width="333"/>
  <unicode hex="00B4"/>
  <outline>
    <contour>
      <point x="93" y="507" type="line" name="hr00"/>
      <point x="133" y="507" type="line"/>
      <point x="321" y="645" type="line"/>
      <point x="265" y="695" type="line"/>
    </contour>
  </outline>
</glyph>
<glyph name="mu" format="1">
  <advance width="510"/>
  <unicode hex="00B5"/>
  <outline>
    <contour>
      <point x="405" y="452" type="line"/>
      <point x="320" y="452" type="line"/>
      <point x="320" y="99" type="line"/>
      <point x="305" y="71" smooth="yes"/>
      <point x="271" y="35" smooth="yes"/>
      <point x="241" y="35" type="curve" smooth="yes"/>
      <point x="182" y="35" smooth="yes"/>
      <point x="164" y="71" smooth="yes"/>
      <point x="164" y="132" type="curve" smooth="yes"/>
      <point x="164" y="452" type="line"/>
      <point x="79" y="452" type="line"/>
      <point x="79" y="-210" type="line"/>
      <point x="114" y="-210"/>
      <point x="141" y="-194"/>
      <point x="155" y="-174" type="curve"/>
      <point x="155" y="-174"/>
      <point x="114" y="-64"/>
      <point x="107" y="44" type="curve" name="hr01"/>
      <point x="111" y="44" type="line"/>
      <point x="136" y="0" smooth="yes"/>
      <point x="165" y="-13" smooth="yes"/>
      <point x="197" y="-13" type="curve" smooth="yes"/>
      <point x="256" y="-13"/>
      <point x="286" y="14"/>
      <point x="324" y="61" type="curve"/>
      <point x="405" y="-12" type="line"/>
      <point x="457" y="25" type="line"/>
      <point x="440" y="38" smooth="yes"/>
      <point x="405" y="66" smooth="yes"/>
      <point x="405" y="134" type="curve" smooth="yes"/>
    </contour>
  </outline>
</glyph>
<glyph name="paragraph" format="1">
  <advance width="453"/>
  <unicode hex="00B6"/>
  <outline>
    <contour>
      <point x="238" y="-154" type="line" name="hr00"/>
      <point x="238" y="640" type="line"/>
      <point x="296" y="640" type="line"/>
      <point x="296" y="-154" type="line"/>
      <point x="362" y="-154" type="line"/>
      <point x="362" y="662" type="line"/>
      <point x="187" y="662" type="line" smooth="yes"/>
      <point x="37" y="662" smooth="yes"/>
      <point x="-22" y="597" smooth="yes"/>
      <point x="-22" y="499" type="curve" smooth="yes"/>
      <point x="-22" y="373"/>
      <point x="39" y="323"/>
      <point x="172" y="323" type="curve"/>
      <point x="172" y="-154" type="line"/>
    </contour>
    <contour>
      <point x="172" y="345" type="line"/>
      <point x="100" y="350" smooth="yes"/>
      <point x="54" y="369" smooth="yes"/>
      <point x="54" y="498" type="curve" smooth="yes"/>
      <point x="54" y="594"/>
      <point x="92" y="635"/>
      <point x="172" y="640" type="curve"/>
    </contour>
  </outline>
</glyph>
<glyph name="cedilla" format="1">
  <advance width="333"/>
  <unicode hex="00B8"/>
  <outline>
    <contour>
      <point x="139" y="0" type="line" name="hr00"/>
      <point x="99" y="-100" type="line"/>
      <point x="137" y="-100"/>
      <point x="170" y="-110"/>
      <point x="186" y="-141" type="curve"/>
      <point x="186" y="-163" smooth="yes"/>
      <point x="160" y="-180" smooth="yes"/>
      <point x="128" y="-180" type="curve" smooth="yes"/>
      <point x="120" y="-180"/>
      <point x="83" y="-175"/>
      <point x="66" y="-168" type="curve"/>
      <point x="52" y="-199" type="line"/>
      <point x="74" y="-208" smooth="yes"/>
      <point x="114" y="-215" smooth="yes"/>
      <point x="140" y="-215" type="curve" smooth="yes"/>
      <point x="207" y="-215"/>
      <point x="261" y="-178"/>
      <point x="261" y="-132" type="curve"/>
      <point x="238" y="-88"/>
      <point x="190" y="-65"/>
      <point x="149" y="-65" type="curve"/>
      <point x="174" y="0" type="line"/>
    </contour>
  </outline>
</glyph>
<glyph name="ordmasculine" format="1">
  <advance width="304"/>
  <unicode hex="00BA"/>
  <outline>
    <contour>
      <point x="163" y="677" type="curve" name="hr00"/>
      <point x="99" y="677"/>
      <point x="15" y="641"/>
      <point x="15" y="527" type="curve"/>
      <point x="15" y="441"/>
      <point x="71" y="393"/>
      <point x="140" y="393" type="curve"/>
      <point x="203" y="393"/>
      <point x="287" y="429"/>
      <point x="287" y="543" type="curve"/>
      <point x="287" y="630"/>
      <point x="232" y="677"/>
    </contour>
    <contour>
      <point x="150" y="644" type="curve"/>
      <point x="191" y="644"/>
      <point x="223" y="595"/>
      <point x="223" y="534" type="curve"/>
      <point x="223" y="462"/>
      <point x="199" y="425"/>
      <point x="150" y="425" type="curve"/>
      <point x="110" y="425"/>
      <point x="78" y="474"/>
      <point x="78" y="534" type="curve"/>
      <point x="78" y="601"/>
      <point x="102" y="644"/>
    </contour>
  </outline>
</glyph>
<glyph name="onehalf" format="1">
  <advance width="799"/>
  <unicode hex="00BD"/>
  <outline>
    <contour>
      <point x="78" y="567" type="line"/>
      <point x="159" y="608" type="line"/>
      <point x="159" y="301" type="line"/>
      <point x="227" y="301" type="line"/>
      <point x="227" y="687" type="line"/>
      <point x="218" y="687" type="line"/>
      <point x="49" y="615" type="line"/>
    </contour>
    <contour>
      <point x="733" y="266" type="curve"/>
      <point x="733" y="323" smooth="yes"/>
      <point x="701" y="383" smooth="yes"/>
      <point x="593" y="383" type="curve" smooth="yes"/>
      <point x="565" y="383"/>
      <point x="514" y="374"/>
      <point x="493" y="367" type="curve"/>
      <point x="509" y="313" type="line"/>
      <point x="548" y="324"/>
      <point x="589" y="333"/>
      <point x="615" y="334" type="curve"/>
      <point x="649" y="320" smooth="yes"/>
      <point x="664" y="295" smooth="yes"/>
      <point x="664" y="266" type="curve" smooth="yes"/>
      <point x="664" y="193"/>
      <point x="557" y="88"/>
      <point x="480" y="41" type="curve"/>
      <point x="480" y="0" type="line"/>
      <point x="742" y="0" type="line"/>
      <point x="742" y="57" type="line"/>
      <point x="566" y="49" type="line"/>
      <point x="566" y="54" type="line"/>
      <point x="635" y="106" smooth="yes"/>
      <point x="733" y="200" smooth="yes"/>
    </contour>
    <contour>
      <point x="249" y="-14" type="line" name="hr01"/>
      <point x="599" y="677" type="line"/>
      <point x="553" y="677" type="line"/>
      <point x="200" y="-14" type="line"/>
    </contour>
  </outline>
</glyph>
<glyph name="threequarters" format="1">
  <advance width="799"/>
  <unicode hex="00BE"/>
  <outline>
    <contour>
      <point x="153" y="291" type="curve"/>
      <point x="215" y="291" smooth="yes"/>
      <point x="301" y="328" smooth="yes"/>
      <point x="301" y="408" type="curve" smooth="yes"/>
      <point x="301" y="448"/>
      <point x="271" y="482"/>
      <point x="209" y="499" type="curve"/>
      <point x="251" y="518" smooth="yes"/>
      <point x="279" y="550" smooth="yes"/>
      <point x="279" y="584" type="curve" smooth="yes" name="hr01"/>
      <point x="279" y="649" smooth="yes"/>
      <point x="217" y="684" smooth="yes"/>
      <point x="142" y="684" type="curve" smooth="yes"/>
      <point x="117" y="684"/>
      <point x="76" y="676"/>
      <point x="53" y="670" type="curve"/>
      <point x="70" y="623" type="line"/>
      <point x="108" y="633"/>
      <point x="140" y="641"/>
      <point x="163" y="641" type="curve"/>
      <point x="200" y="623" smooth="yes"/>
      <point x="210" y="592" smooth="yes"/>
      <point x="210" y="581" type="curve" smooth="yes"/>
      <point x="210" y="545"/>
      <point x="186" y="513"/>
      <point x="104" y="508" type="curve"/>
      <point x="104" y="482" type="line"/>
      <point x="195" y="482" smooth="yes"/>
      <point x="225" y="442" smooth="yes"/>
      <point x="225" y="404" type="curve" smooth="yes" name="hr02"/>
      <point x="225" y="355"/>
      <point x="187" y="328"/>
      <point x="146" y="327" type="curve"/>
      <point x="118" y="332"/>
      <point x="88" y="343"/>
      <point x="56" y="357" type="curve"/>
      <point x="39" y="309" type="line"/>
      <point x="59" y="303" smooth="yes"/>
      <point x="106" y="291" smooth="yes"/>
    </contour>
    <contour>
      <point x="727" y="76" type="line"/>
      <point x="727" y="120" type="line"/>
      <point x="674" y="120" type="line"/>
      <point x="674" y="378" type="line"/>
      <point x="610" y="378" type="line"/>
      <point x="424" y="102" type="line"/>
      <point x="424" y="76" type="line"/>
      <point x="607" y="76" type="line"/>
      <point x="607" y="0" type="line"/>
      <point x="674" y="0" type="line"/>
      <point x="674" y="76" type="line"/>
    </contour>
    <contour>
      <point x="607" y="120" type="line"/>
      <point x="480" y="120" type="line"/>
      <point x="607" y="313" type="line"/>
    </contour>
    <contour>
      <point x="249" y="-14" type="line"/>
      <point x="599" y="677" type="line"/>
      <point x="553" y="677" type="line"/>
      <point x="200" y="-14" type="line"/>
    </contour>
  </outline>
</glyph>
<glyph name="questiondown" format="1">
  <advance width="444"/>
  <unicode hex="00BF"/>
  <outline>
    <contour>
      <point x="250" y="361" type="curve" name="hr00"/>
      <point x="279" y="361" smooth="yes"/>
      <point x="304" y="384" smooth="yes"/>
      <point x="304" y="415" type="curve" smooth="yes"/>
      <point x="304" y="453" smooth="yes"/>
      <point x="271" y="467" smooth="yes"/>
      <point x="250" y="467" type="curve" smooth="yes"/>
      <point x="226" y="467" smooth="yes"/>
      <point x="195" y="451" smooth="yes"/>
      <point x="195" y="415" type="curve" smooth="yes"/>
      <point x="195" y="386" smooth="yes"/>
      <point x="219" y="361" smooth="yes"/>
    </contour>
    <contour>
      <point x="356" y="-118" type="line"/>
      <point x="315" y="-130"/>
      <point x="251" y="-140"/>
      <point x="213" y="-140" type="curve"/>
      <point x="152" y="-116" smooth="yes"/>
      <point x="127" y="-71" smooth="yes"/>
      <point x="127" y="-15" type="curve" smooth="yes"/>
      <point x="127" y="74"/>
      <point x="191" y="187"/>
      <point x="273" y="276" type="curve"/>
      <point x="244" y="299" type="line"/>
      <point x="149" y="203" smooth="yes"/>
      <point x="44" y="69" smooth="yes"/>
      <point x="44" y="-24" type="curve" smooth="yes"/>
      <point x="44" y="-108" smooth="yes"/>
      <point x="90" y="-196" smooth="yes"/>
      <point x="253" y="-196" type="curve" smooth="yes"/>
      <point x="287" y="-196"/>
      <point x="329" y="-188"/>
      <point x="356" y="-181" type="curve"/>
    </contour>
  </outline>
</glyph>
<glyph name="germandbls" format="1">
  <advance width="579"/>
  <unicode hex="00DF"/>
  <outline>
    <contour>
      <point x="208" y="14" type="line"/>
      <point x="236" y="4" smooth="yes"/>
      <point x="286" y="-12" smooth="yes"/>
      <point x="343" y="-12" type="curve" smooth="yes"/>
      <point x="436" y="-12" smooth="yes"/>
      <point x="553" y="43" smooth="yes"/>
      <point x="553" y="180" type="curve" smooth="yes"/>
      <point x="553" y="293"/>
      <point x="410" y="368"/>
      <point x="375" y="386" type="curve"/>
      <point x="434" y="440" smooth="yes"/>
      <point x="497" y="498" smooth="yes"/>
      <point x="497" y="563" type="curve" smooth="yes" name="hr01"/>
      <point x="497" y="627" smooth="yes"/>
      <point x="446" y="683" smooth="yes"/>
      <point x="299" y="683" type="curve" smooth="yes"/>
      <point x="208" y="683"/>
      <point x="134" y="664"/>
      <point x="104" y="655" type="curve"/>
      <point x="104" y="452" type="line"/>
      <point x="20" y="452" type="line"/>
      <point x="20" y="432" type="line"/>
      <point x="103" y="416" type="line"/>
      <point x="103" y="0" type="line"/>
      <point x="185" y="0" type="line"/>
      <point x="185" y="607" type="line"/>
      <point x="241" y="624"/>
      <point x="286" y="635"/>
      <point x="329" y="635" type="curve"/>
      <point x="374" y="621" smooth="yes"/>
      <point x="409" y="587" smooth="yes"/>
      <point x="409" y="549" type="curve" smooth="yes"/>
      <point x="409" y="487" smooth="yes"/>
      <point x="318" y="419" smooth="yes"/>
      <point x="318" y="377" type="curve" smooth="yes"/>
      <point x="318" y="333" smooth="yes"/>
      <point x="466" y="307" smooth="yes"/>
      <point x="466" y="180" type="curve" smooth="yes" name="hr02"/>
      <point x="466" y="82"/>
      <point x="405" y="39"/>
      <point x="343" y="30" type="curve"/>
      <point x="317" y="39"/>
      <point x="265" y="61"/>
      <point x="231" y="78" type="curve"/>
    </contour>
  </outline>
</glyph>
<glyph name="ae" format="1">
  <advance width="704"/>
  <unicode hex="00E6"/>
  <outline>
    <contour>
      <point x="216" y="464" type="curve" smooth="yes" name="hr00"/>
      <point x="146" y="464"/>
      <point x="71" y="429"/>
      <point x="50" y="412" type="curve"/>
      <point x="59" y="387" type="line"/>
      <point x="112" y="404" smooth="yes"/>
      <point x="155" y="411" smooth="yes"/>
      <point x="189" y="411" type="curve" smooth="yes"/>
      <point x="254" y="411" smooth="yes"/>
      <point x="285" y="383" smooth="yes"/>
      <point x="285" y="328" type="curve" smooth="yes"/>
      <point x="285" y="236" type="line"/>
      <point x="194" y="230" smooth="yes"/>
      <point x="33" y="199" smooth="yes"/>
      <point x="33" y="94" type="curve" smooth="yes"/>
      <point x="33" y="27" smooth="yes"/>
      <point x="85" y="-11" smooth="yes"/>
      <point x="140" y="-11" type="curve" smooth="yes"/>
      <point x="194" y="-11"/>
      <point x="269" y="40"/>
      <point x="317" y="84" type="curve"/>
      <point x="355" y="22" smooth="yes"/>
      <point x="422" y="-11" smooth="yes"/>
      <point x="502" y="-11" type="curve" smooth="yes"/>
      <point x="563" y="-11"/>
      <point x="617" y="12"/>
      <point x="659" y="36" type="curve"/>
      <point x="659" y="71" type="line"/>
      <point x="626" y="56" smooth="yes"/>
      <point x="587" y="44" smooth="yes"/>
      <point x="535" y="44" type="curve" smooth="yes"/>
      <point x="458" y="44"/>
      <point x="383" y="81"/>
      <point x="367" y="200" type="curve"/>
      <point x="367" y="247" type="line"/>
      <point x="683" y="247" type="line"/>
      <point x="683" y="390" smooth="yes"/>
      <point x="605" y="464" smooth="yes"/>
      <point x="512" y="464" type="curve" smooth="yes"/>
      <point x="452" y="464"/>
      <point x="394" y="441"/>
      <point x="352" y="398" type="curve"/>
      <point x="335" y="434" smooth="yes"/>
      <point x="297" y="464" smooth="yes"/>
    </contour>
    <contour>
      <point x="461" y="417" type="curve"/>
      <point x="502" y="417"/>
      <point x="593" y="397"/>
      <point x="602" y="277" type="curve"/>
      <point x="368" y="277" type="line"/>
      <point x="379" y="343"/>
      <point x="415" y="395"/>
    </contour>
    <contour>
      <point x="178" y="36" type="curve"/>
      <point x="146" y="47" smooth="yes"/>
      <point x="121" y="78" smooth="yes"/>
      <point x="121" y="120" type="curve" smooth="yes"/>
      <point x="121" y="161"/>
      <point x="185" y="204"/>
      <point x="285" y="211" type="curve"/>
      <point x="285" y="176"/>
      <point x="291" y="146"/>
      <point x="301" y="119" type="curve"/>
      <point x="288" y="96"/>
      <point x="220" y="44"/>
    </contour>
  </outline>
</glyph>
<glyph name="divide" format="1">
  <advance width="564"/>
  <unicode hex="00F7"/>
  <outline>
    <contour>
      <point x="59" y="224" type="line" name="hr00"/>
      <point x="505" y="224" type="line"/>
      <point x="505" y="282" type="line"/>
      <point x="59" y="282" type="line"/>
    </contour>
    <contour>
      <point x="282" y="388" type="curve"/>
      <point x="301" y="388" smooth="yes"/>
      <point x="332" y="403" smooth="yes"/>
      <point x="332" y="436" type="curve" smooth="yes"/>
      <point x="332" y="463" smooth="yes"/>
      <point x="309" y="486" smooth="yes"/>
      <point x="282" y="486" type="curve" smooth="yes"/>
      <point x="255" y="486" smooth="yes"/>
      <point x="233" y="464" smooth="yes"/>
      <point x="233" y="436" type="curve" smooth="yes"/>
      <point x="233" y="402" smooth="yes"/>
      <point x="263" y="388" smooth="yes"/>
    </contour>
    <contour>
      <point x="282" y="20" type="curve"/>
      <point x="301" y="20" smooth="yes"/>
      <point x="332" y="35" smooth="yes"/>
      <point x="332" y="68" type="curve" smooth="yes"/>
      <point x="332" y="95" smooth="yes"/>
      <point x="309" y="118" smooth="yes"/>
      <point x="282" y="118" type="curve" smooth="yes"/>
      <point x="255" y="118" smooth="yes"/>
      <point x="233" y="96" smooth="yes"/>
      <point x="233" y="68" type="curve" smooth="yes"/>
      <point x="233" y="34" smooth="yes"/>
      <point x="263" y="20" smooth="yes"/>
    </contour>
  </outline>
</glyph>
<glyph name="thorn" format="1">
  <advance width="500"/>
  <unicode hex="00FE"/>
  <outline>
    <contour>
      <point x="306" y="462" type="curve" name="hr00"/>
      <point x="263" y="462"/>
      <point x="198" y="429"/>
      <point x="160" y="388" type="curve"/>
      <point x="160" y="683" type="line"/>
      <point x="75" y="683" type="line"/>
      <point x="75" y="-212" type="line"/>
      <point x="160" y="-212" type="line"/>
      <point x="160" y="30" type="line"/>
      <point x="210" y="-4" smooth="yes"/>
      <point x="255" y="-17" smooth="yes"/>
      <point x="294" y="-17" type="curve" smooth="yes"/>
      <point x="413" y="-17" smooth="yes"/>
      <point x="476" y="121" smooth="yes"/>
      <point x="476" y="219" type="curve" smooth="yes"/>
      <point x="476" y="420" smooth="yes"/>
      <point x="366" y="462" smooth="yes"/>
    </contour>
    <contour>
      <point x="296" y="415" type="curve"/>
      <point x="345" y="399" smooth="yes"/>
      <point x="385" y="321" smooth="yes"/>
      <point x="385" y="207" type="curve" smooth="yes"/>
      <point x="385" y="105" smooth="yes"/>
      <point x="341" y="31" smooth="yes"/>
      <point x="267" y="31" type="curve" smooth="yes"/>
      <point x="236" y="31"/>
      <point x="200" y="40"/>
      <point x="160" y="59" type="curve"/>
      <point x="160" y="327" type="line" smooth="yes"/>
      <point x="160" y="337"/>
      <point x="218" y="406"/>
    </contour>
  </outline>
</glyph>
<glyph name="Lslash" format="1">
  <advance width="487"/>
  <unicode hex="0141"/>
  <outline>
    <contour>
      <point x="467" y="67" type="line"/>
      <point x="286" y="36" type="line"/>
      <point x="261" y="36"/>
      <point x="222" y="44"/>
      <point x="188" y="54" type="curve"/>
      <point x="188" y="314" type="line"/>
      <point x="313" y="394" type="line"/>
      <point x="313" y="443" type="line"/>
      <point x="188" y="363" type="line"/>
      <point x="188" y="662" type="line"/>
      <point x="90" y="662" type="line"/>
      <point x="90" y="300" type="line"/>
      <point x="3" y="245" type="line"/>
      <point x="3" y="196" type="line"/>
      <point x="90" y="251" type="line"/>
      <point x="90" y="0" type="line"/>
      <point x="455" y="0" type="line"/>
    </contour>
    <component  base="L"/>
    <component  base="eslash" xScale="1.1" yScale="1.1" xOffset="12" yOffset="-78"/>
  </outline>
</glyph>
<glyph name="eng" format="1">
  <advance width="500"/>
  <unicode hex="014B"/>
  <outline>
    <contour>
      <point x="341" y="17" type="line" name="hr00"/>
      <point x="341" y="-36"/>
      <point x="326" y="-150"/>
      <point x="275" y="-176" type="curve"/>
      <point x="252" y="-176"/>
      <point x="197" y="-162"/>
      <point x="166" y="-146" type="curve"/>
      <point x="156" y="-211" type="line"/>
      <point x="180" y="-217" smooth="yes"/>
      <point x="208" y="-223" smooth="yes"/>
      <point x="232" y="-223" type="curve" smooth="yes"/>
      <point x="350" y="-223" smooth="yes"/>
      <point x="421" y="-119" smooth="yes"/>
      <point x="425" y="17" type="curve" smooth="yes"/>
      <point x="426" y="313" type="line" smooth="yes"/>
      <point x="426" y="437" smooth="yes"/>
      <point x="354" y="464" smooth="yes"/>
      <point x="308" y="464" type="curve" smooth="yes"/>
      <point x="249" y="464"/>
      <point x="211" y="434"/>
      <point x="162" y="388" type="curve"/>
      <point x="80" y="461" type="line"/>
      <point x="29" y="423" type="line"/>
      <point x="45" y="410" smooth="yes"/>
      <point x="80" y="383" smooth="yes"/>
      <point x="80" y="314" type="curve" smooth="yes"/>
      <point x="80" y="0" type="line"/>
      <point x="165" y="0" type="line"/>
      <point x="165" y="345" type="line"/>
      <point x="203" y="383" smooth="yes"/>
      <point x="234" y="401" smooth="yes"/>
      <point x="264" y="401" type="curve" smooth="yes"/>
      <point x="323" y="401" smooth="yes"/>
      <point x="341" y="365" smooth="yes"/>
      <point x="341" y="303" type="curve" smooth="yes"/>
    </contour>
  </outline>
</glyph>
<glyph name="OE" format="1">
  <advance width="889"/>
  <unicode hex="0152"/>
  <outline>
    <contour>
      <point x="499" y="36" type="line" name="hr00"/>
      <point x="499" y="328" type="line"/>
      <point x="736" y="328" type="line"/>
      <point x="736" y="366" type="line"/>
      <point x="499" y="366" type="line"/>
      <point x="499" y="608" type="line"/>
      <point x="537" y="619"/>
      <point x="568" y="625"/>
      <point x="607" y="625" type="curve"/>
      <point x="818" y="594" type="line"/>
      <point x="818" y="661" type="line"/>
      <point x="402" y="661" type="line"/>
      <point x="245" y="661" smooth="yes"/>
      <point x="34" y="575" smooth="yes"/>
      <point x="34" y="312" type="curve" smooth="yes"/>
      <point x="34" y="111" smooth="yes"/>
      <point x="172" y="0" smooth="yes"/>
      <point x="343" y="0" type="curve" smooth="yes"/>
      <point x="402" y="0" type="line"/>
      <point x="824" y="0" type="line"/>
      <point x="824" y="67" type="line"/>
    </contour>
    <contour>
      <point x="372" y="622" type="curve"/>
      <point x="382" y="622"/>
      <point x="392" y="621"/>
      <point x="402" y="619" type="curve"/>
      <point x="402" y="33" type="line"/>
      <point x="392" y="32" smooth="yes"/>
      <point x="382" y="32" smooth="yes"/>
      <point x="372" y="32" type="curve" smooth="yes"/>
      <point x="229" y="32" smooth="yes"/>
      <point x="143" y="165" smooth="yes"/>
      <point x="143" y="328" type="curve" smooth="yes"/>
      <point x="143" y="504"/>
      <point x="221" y="622"/>
    </contour>
  </outline>
</glyph>
<glyph name="oe" format="1">
  <advance width="791"/>
  <unicode hex="0153"/>
  <outline>
    <contour>
      <point x="263" y="463" type="curve"/>
      <point x="163" y="463" smooth="yes"/>
      <point x="29" y="401" smooth="yes"/>
      <point x="29" y="212" type="curve" smooth="yes"/>
      <point x="29" y="67" smooth="yes"/>
      <point x="116" y="-13" smooth="yes"/>
      <point x="225" y="-13" type="curve" smooth="yes"/>
      <point x="288" y="-13"/>
      <point x="361" y="12"/>
      <point x="405" y="79" type="curve"/>
      <point x="443" y="19" smooth="yes"/>
      <point x="509" y="-13" smooth="yes"/>
      <point x="589" y="-13" type="curve" smooth="yes"/>
      <point x="650" y="-13"/>
      <point x="704" y="10"/>
      <point x="746" y="34" type="curve"/>
      <point x="746" y="69" type="line"/>
      <point x="713" y="54" smooth="yes"/>
      <point x="674" y="42" smooth="yes"/>
      <point x="622" y="42" type="curve" smooth="yes"/>
      <point x="535" y="42"/>
      <point x="451" y="89"/>
      <point x="451" y="245" type="curve"/>
      <point x="770" y="245" type="line"/>
      <point x="770" y="388" smooth="yes"/>
      <point x="692" y="462" smooth="yes"/>
      <point x="599" y="462" type="curve" smooth="yes" name="hr01"/>
      <point x="528" y="462"/>
      <point x="461" y="431"/>
      <point x="418" y="371" type="curve"/>
      <point x="387" y="431"/>
      <point x="332" y="463"/>
    </contour>
    <contour>
      <point x="548" y="415" type="curve" name="hr03"/>
      <point x="589" y="415"/>
      <point x="680" y="395"/>
      <point x="689" y="275" type="curve"/>
      <point x="455" y="275" type="line"/>
      <point x="466" y="341"/>
      <point x="502" y="393"/>
    </contour>
    <contour>
      <point x="243" y="31" type="curve"/>
      <point x="146" y="31"/>
      <point x="118" y="120"/>
      <point x="117" y="224" type="curve"/>
      <point x="117" y="299"/>
      <point x="151" y="385"/>
      <point x="227" y="415" type="curve"/>
      <point x="325" y="415"/>
      <point x="370" y="326"/>
      <point x="371" y="224" type="curve"/>
      <point x="371" y="132"/>
      <point x="321" y="31"/>
    </contour>
  </outline>
</glyph>
<glyph name="florin" format="1">
  <advance width="500"/>
  <unicode hex="0192"/>
  <outline>
    <contour>
      <point x="210" y="398" type="line" name="hr00"/>
      <point x="102" y="398" type="line"/>
      <point x="102" y="360" type="line"/>
      <point x="206" y="360" type="line"/>
      <point x="165" y="-33" type="line" smooth="yes"/>
      <point x="160" y="-80" smooth="yes"/>
      <point x="143" y="-143" smooth="yes"/>
      <point x="74" y="-143" type="curve" smooth="yes"/>
      <point x="54" y="-143"/>
      <point x="30" y="-140"/>
      <point x="9" y="-135" type="curve"/>
      <point x="-3" y="-174" type="line"/>
      <point x="19" y="-182" smooth="yes"/>
      <point x="47" y="-189" smooth="yes"/>
      <point x="71" y="-189" type="curve" smooth="yes"/>
      <point x="162" y="-189" smooth="yes"/>
      <point x="223" y="-139" smooth="yes"/>
      <point x="242" y="6" type="curve" smooth="yes"/>
      <point x="288" y="360" type="line"/>
      <point x="425" y="360" type="line"/>
      <point x="425" y="398" type="line"/>
      <point x="293" y="398" type="line"/>
      <point x="300" y="453" type="line" smooth="yes"/>
      <point x="314" y="564"/>
      <point x="326" y="609"/>
      <point x="375" y="629" type="curve"/>
      <point x="405" y="623"/>
      <point x="446" y="610"/>
      <point x="479" y="598" type="curve"/>
      <point x="489" y="663" type="line"/>
      <point x="466" y="670" smooth="yes"/>
      <point x="432" y="675" smooth="yes"/>
      <point x="413" y="675" type="curve" smooth="yes"/>
      <point x="295" y="675" smooth="yes"/>
      <point x="231" y="602" smooth="yes"/>
      <point x="216" y="453" type="curve" smooth="yes"/>
    </contour>
  </outline>
</glyph>
<glyph name="caron" format="1">
  <advance width="333"/>
  <unicode hex="02C7"/>
  <outline>
    <contour>
      <point x="16" y="673" type="line" name="hr00"/>
      <point x="142" y="506" type="line"/>
      <point x="190" y="506" type="line"/>
      <point x="315" y="673" type="line"/>
      <point x="275" y="673" type="line"/>
      <point x="166" y="580" type="line"/>
      <point x="56" y="673" type="line"/>
    </contour>
  </outline>
</glyph>
<glyph name="commaaccent" format="1">
  <advance width="0"/>
  <unicode hex="0326"/>
  <outline>
    <contour>
      <point x="-74" y="-42" type="curve" name="hr00"/>
      <point x="-113" y="-46"/>
      <point x="-160" y="-71"/>
      <point x="-179" y="-99" type="curve"/>
      <point x="-179" y="-135"/>
      <point x="-145" y="-154"/>
      <point x="-117" y="-154" type="curve"/>
      <point x="-117" y="-197"/>
      <point x="-145" y="-242"/>
      <point x="-184" y="-273" type="curve"/>
      <point x="-172" y="-292" type="line"/>
      <point x="-111" y="-258" smooth="yes"/>
      <point x="-60" y="-205" smooth="yes"/>
      <point x="-60" y="-122" type="curve" smooth="yes"/>
      <point x="-60" y="-98"/>
      <point x="-64" y="-71"/>
    </contour>
  </outline>
</glyph>
<glyph name="endash" format="1">
  <advance width="500"/>
  <unicode hex="2013"/>
  <outline>
    <contour>
      <point x="500" y="250" type="line" name="hr00"/>
      <point x="0" y="250" type="line"/>
      <point x="0" y="201" type="line"/>
      <point x="500" y="201" type="line"/>
    </contour>
  </outline>
</glyph>
<glyph name="emdash" format="1">
  <advance width="1000"/>
  <unicode hex="2014"/>
  <outline>
    <contour>
      <point x="1000" y="250" type="line" name="hr00"/>
      <point x="0" y="250" type="line"/>
      <point x="0" y="201" type="line"/>
      <point x="1000" y="201" type="line"/>
    </contour>
  </outline>
</glyph>
<glyph name="quoteright" format="1">
  <advance width="224"/>
  <unicode hex="2019"/>
  <outline>
    <contour>
      <point x="160" y="677" type="curve" name="hr00"/>
      <point x="121" y="673"/>
      <point x="74" y="648"/>
      <point x="55" y="620" type="curve"/>
      <point x="55" y="584"/>
      <point x="89" y="565"/>
      <point x="117" y="565" type="curve"/>
      <point x="117" y="522"/>
      <point x="89" y="477"/>
      <point x="50" y="446" type="curve"/>
      <point x="62" y="427" type="line"/>
      <point x="123" y="461" smooth="yes"/>
      <point x="174" y="514" smooth="yes"/>
      <point x="174" y="597" type="curve" smooth="yes"/>
      <point x="174" y="621"/>
      <point x="170" y="648"/>
    </contour>
  </outline>
</glyph>
<glyph name="daggerdbl" format="1">
  <advance width="500"/>
  <unicode hex="2021"/>
  <outline>
    <contour>
      <point x="58" y="111" type="line" name="hr00"/>
      <point x="58" y="45" type="line"/>
      <point x="116" y="45" type="line"/>
      <point x="235" y="65" type="line"/>
      <point x="206" y="-71" type="line"/>
      <point x="206" y="-151" type="line"/>
      <point x="221" y="-155" smooth="yes"/>
      <point x="234" y="-156" smooth="yes"/>
      <point x="247" y="-156" type="curve" smooth="yes"/>
      <point x="260" y="-156"/>
      <point x="274" y="-155"/>
      <point x="292" y="-151" type="curve"/>
      <point x="292" y="-71" type="line"/>
      <point x="264" y="65" type="line"/>
      <point x="383" y="45" type="line"/>
      <point x="441" y="45" type="line"/>
      <point x="441" y="111" type="line"/>
      <point x="383" y="111" type="line"/>
      <point x="261" y="91" type="line"/>
      <point x="292" y="262" type="line"/>
      <point x="261" y="435" type="line"/>
      <point x="384" y="415" type="line"/>
      <point x="442" y="415" type="line"/>
      <point x="442" y="481" type="line"/>
      <point x="384" y="481" type="line"/>
      <point x="265" y="461" type="line"/>
      <point x="294" y="597" type="line"/>
      <point x="294" y="677" type="line"/>
      <point x="279" y="681" smooth="yes"/>
      <point x="266" y="682" smooth="yes"/>
      <point x="253" y="682" type="curve" smooth="yes"/>
      <point x="240" y="682"/>
      <point x="226" y="681"/>
      <point x="208" y="677" type="curve"/>
      <point x="208" y="597" type="line"/>
      <point x="236" y="461" type="line"/>
      <point x="117" y="481" type="line"/>
      <point x="59" y="481" type="line"/>
      <point x="59" y="415" type="line"/>
      <point x="117" y="415" type="line"/>
      <point x="239" y="435" type="line"/>
      <point x="208" y="262" type="line"/>
      <point x="239" y="91" type="line"/>
      <point x="116" y="111" type="line"/>
    </contour>
  </outline>
</glyph>
<glyph name="guilsinglleft" format="1">
  <advance width="333"/>
  <unicode hex="2039"/>
  <outline>
    <contour>
      <point x="63" y="227" type="line" name="hr00"/>
      <point x="274" y="33" type="line"/>
      <point x="280" y="33" smooth="yes"/>
      <point x="285" y="37" smooth="yes"/>
      <point x="285" y="44" type="curve" smooth="yes"/>
      <point x="156" y="225" type="line"/>
      <point x="284" y="405" type="line"/>
      <point x="284" y="412" smooth="yes"/>
      <point x="282" y="416" smooth="yes"/>
      <point x="274" y="416" type="curve" smooth="yes"/>
    </contour>
  </outline>
</glyph>
<glyph name="lira" format="1">
  <advance width="500"/>
  <unicode hex="20A4"/>
  <outline>
    <contour>
      <point x="188" y="372" type="curve" smooth="yes"/>
      <point x="188" y="429" smooth="yes"/>
      <point x="179" y="482" smooth="yes"/>
      <point x="179" y="526" type="curve" smooth="yes"/>
      <point x="179" y="583"/>
      <point x="192" y="625"/>
      <point x="244" y="644" type="curve"/>
      <point x="287" y="638"/>
      <point x="346" y="613"/>
      <point x="402" y="583" type="curve"/>
      <point x="412" y="649" type="line"/>
      <point x="380" y="662" smooth="yes"/>
      <point x="332" y="680" smooth="yes"/>
      <point x="279" y="680" type="curve" smooth="yes"/>
      <point x="172" y="680" smooth="yes"/>
      <point x="92" y="595" smooth="yes"/>
      <point x="92" y="469" type="curve" smooth="yes"/>
      <point x="92" y="393" smooth="yes"/>
      <point x="111" y="321" smooth="yes"/>
      <point x="111" y="247" type="curve" smooth="yes" name="hr01"/>
      <point x="111" y="173"/>
      <point x="99" y="95"/>
      <point x="56" y="27" type="curve"/>
      <point x="56" y="0" type="line"/>
      <point x="416" y="0" type="line"/>
      <point x="428" y="67" type="line"/>
      <point x="202" y="36" type="line"/>
      <point x="171" y="37"/>
      <point x="139" y="40"/>
      <point x="109" y="47" type="curve"/>
      <point x="164" y="135" smooth="yes"/>
      <point x="188" y="268" smooth="yes"/>
    </contour>
    <contour>
      <point x="329" y="360" type="line"/>
      <point x="329" y="398" type="line"/>
      <point x="26" y="398" type="line"/>
      <point x="26" y="360" type="line"/>
    </contour>
    <contour>
      <point x="329" y="234" type="line"/>
      <point x="329" y="272" type="line"/>
      <point x="26" y="272" type="line"/>
      <point x="26" y="234" type="line"/>
    </contour>
  </outline>
</glyph>
<glyph name="product" format="1">
  <advance width="627"/>
  <unicode hex="220F"/>
  <outline>
    <contour>
      <point x="537" y="662" type="line" name="hr00"/>
      <point x="90" y="662" type="line"/>
      <point x="90" y="-100" type="line"/>
      <point x="187" y="-100" type="line"/>
      <point x="187" y="608" type="line"/>
      <point x="440" y="608" type="line"/>
      <point x="440" y="-100" type="line"/>
      <point x="537" y="-100" type="line"/>
    </contour>
  </outline>
</glyph>
<glyph name="radical" format="1">
  <advance width="550"/>
  <unicode hex="221A"/>
  <outline>
    <contour>
      <point x="263" y="76" type="line" name="hr00"/>
      <point x="159" y="352" type="line"/>
      <point x="50" y="352" type="line"/>
      <point x="228" y="-100" type="line"/>
      <point x="260" y="-100" type="line"/>
      <point x="493" y="629" type="line"/>
      <point x="636" y="629" type="line"/>
      <point x="636" y="683" type="line"/>
      <point x="457" y="683" type="line"/>
    </contour>
  </outline>
</glyph>
<glyph name="integral" format="1">
  <advance width="339"/>
  <unicode hex="222B"/>
  <outline>
    <contour>
      <point x="212" y="521" type="line" name="hr00"/>
      <point x="212" y="567" smooth="yes"/>
      <point x="226" y="631" smooth="yes"/>
      <point x="295" y="631" type="curve" smooth="yes"/>
      <point x="316" y="631"/>
      <point x="340" y="628"/>
      <point x="361" y="623" type="curve"/>
      <point x="369" y="662" type="line"/>
      <point x="346" y="670" smooth="yes"/>
      <point x="318" y="677" smooth="yes"/>
      <point x="293" y="677" type="curve" smooth="yes"/>
      <point x="201" y="677" smooth="yes"/>
      <point x="127" y="618" smooth="yes"/>
      <point x="127" y="472" type="curve" smooth="yes"/>
      <point x="127" y="43" type="line" smooth="yes"/>
      <point x="127" y="-3" smooth="yes"/>
      <point x="113" y="-67" smooth="yes"/>
      <point x="44" y="-67" type="curve" smooth="yes"/>
      <point x="23" y="-67"/>
      <point x="-1" y="-64"/>
      <point x="-22" y="-59" type="curve"/>
      <point x="-30" y="-98" type="line"/>
      <point x="-7" y="-106" smooth="yes"/>
      <point x="21" y="-113" smooth="yes"/>
      <point x="46" y="-113" type="curve" smooth="yes"/>
      <point x="138" y="-113" smooth="yes"/>
      <point x="212" y="-54" smooth="yes"/>
      <point x="212" y="92" type="curve" smooth="yes"/>
    </contour>
  </outline>
</glyph>
<glyph name="greaterequal" format="1">
  <advance width="564"/>
  <unicode hex="2265"/>
  <outline>
    <contour>
      <point x="434" y="329" type="line" name="hr00"/>
      <point x="57" y="158" type="line"/>
      <point x="57" y="98" type="line"/>
      <point x="507" y="302" type="line"/>
      <point x="507" y="356" type="line"/>
      <point x="57" y="560" type="line"/>
      <point x="57" y="500" type="line"/>
    </contour>
    <contour>
      <point x="59" y="0" type="line"/>
      <point x="505" y="0" type="line"/>
      <point x="505" y="58" type="line"/>
      <point x="59" y="58" type="line"/>
    </contour>
  </outline>
</glyph>
<glyph name="lozenge" format="1">
  <advance width="589"/>
  <unicode hex="25CA"/>
  <outline>
    <contour>
      <point x="539" y="239" type="line" name="hr00"/>
      <point x="302" y="678" type="line"/>
      <point x="287" y="678" type="line"/>
      <point x="50" y="239" type="line"/>
      <point x="287" y="-200" type="line"/>
      <point x="302" y="-200" type="line"/>
    </contour>
    <contour>
      <point x="107" y="239" type="line"/>
      <point x="294" y="593" type="line"/>
      <point x="482" y="239" type="line"/>
      <point x="294" y="-115" type="line"/>
    </contour>
  </outline>
</glyph>
<glyph name="breve.case" format="1">
  <advance width="333"/>
  <outline>
    <contour>
      <point x="278" y="664" type="line" name="hr00"/>
      <point x="259" y="614" smooth="yes"/>
      <point x="242" y="567" smooth="yes"/>
      <point x="166" y="567" type="curve" smooth="yes"/>
      <point x="102" y="567"/>
      <point x="65" y="603"/>
      <point x="55" y="664" type="curve"/>
      <point x="26" y="664" type="line"/>
      <point x="26" y="659" type="line" smooth="yes"/>
      <point x="26" y="554" smooth="yes"/>
      <point x="93" y="507" smooth="yes"/>
      <point x="164" y="507" type="curve" smooth="yes"/>
      <point x="292" y="507"/>
      <point x="304" y="633"/>
      <point x="307" y="664" type="curve"/>
    </contour>
  </outline>
</glyph>
<glyph name="circumflex.case" format="1">
  <advance width="333"/>
  <outline>
    <contour>
      <point x="316" y="507" type="line" name="hr00"/>
      <point x="190" y="674" type="line"/>
      <point x="142" y="674" type="line"/>
      <point x="17" y="507" type="line"/>
      <point x="57" y="507" type="line"/>
      <point x="166" y="600" type="line"/>
      <point x="276" y="507" type="line"/>
    </contour>
  </outline>
</glyph>
<glyph name="dotaccent.case" format="1">
  <advance width="238"/>
  <outline>
    <contour>
      <point x="116" y="645" type="curve" smooth="yes" name="hr00"/>
      <point x="87" y="645" smooth="yes"/>
      <point x="65" y="622" smooth="yes"/>
      <point x="65" y="593" type="curve" smooth="yes"/>
      <point x="65" y="566" smooth="yes"/>
      <point x="87" y="541" smooth="yes"/>
      <point x="116" y="541" type="curve" smooth="yes"/>
      <point x="144" y="541" smooth="yes"/>
      <point x="168" y="566" smooth="yes"/>
      <point x="168" y="593" type="curve" smooth="yes"/>
      <point x="168" y="622" smooth="yes"/>
      <point x="144" y="645" smooth="yes"/>
    </contour>
  </outline>
</glyph>
<glyph name="eslash" format="1">
  <advance width="234"/>
  <outline>
    <contour>
      <point x="10" y="349" type="line" name="hr00"/>
      <point x="10" y="300" type="line"/>
      <point x="224" y="444" type="line"/>
      <point x="224" y="493" type="line"/>
    </contour>
  </outline>
</glyph>
<glyph name="hungarumlaut.case" format="1">
  <advance width="333"/>
  <outline>
    <contour>
      <point x="35" y="507" type="line" name="hr00"/>
      <point x="75" y="507" type="line"/>
      <point x="263" y="645" type="line"/>
      <point x="207" y="695" type="line"/>
    </contour>
    <contour>
      <point x="190" y="507" type="line"/>
      <point x="230" y="507" type="line"/>
      <point x="418" y="645" type="line"/>
      <point x="362" y="695" type="line"/>
    </contour>
  </outline>
</glyph>
<glyph name="ringacute" format="1">
  <advance width="333"/>
  <outline>
    <contour>
      <point x="67" y="611" type="curve" smooth="yes" name="hr00"/>
      <point x="67" y="557" smooth="yes"/>
      <point x="109" y="512" smooth="yes"/>
      <point x="166" y="512" type="curve" smooth="yes"/>
      <point x="221" y="512" smooth="yes"/>
      <point x="266" y="556" smooth="yes"/>
      <point x="266" y="611" type="curve" smooth="yes"/>
      <point x="266" y="666" smooth="yes"/>
      <point x="221" y="711" smooth="yes"/>
      <point x="166" y="711" type="curve" smooth="yes"/>
      <point x="110" y="711" smooth="yes"/>
      <point x="67" y="665" smooth="yes"/>
    </contour>
    <contour>
      <point x="166" y="677" type="curve" smooth="yes"/>
      <point x="203" y="677" smooth="yes"/>
      <point x="232" y="647" smooth="yes"/>
      <point x="232" y="611" type="curve" smooth="yes"/>
      <point x="232" y="575" smooth="yes"/>
      <point x="203" y="546" smooth="yes"/>
      <point x="165" y="546" type="curve" smooth="yes"/>
      <point x="120" y="546" smooth="yes"/>
      <point x="101" y="587" smooth="yes"/>
      <point x="101" y="612" type="curve" smooth="yes"/>
      <point x="101" y="636" smooth="yes"/>
      <point x="121" y="677" smooth="yes"/>
    </contour>
    <contour>
      <point x="222" y="671" type="line"/>
      <point x="345" y="761" type="line"/>
      <point x="289" y="811" type="line"/>
      <point x="183" y="695" type="line"/>
    </contour>
  </outline>
</glyph>
